<?xml version="1.0" standalone="no"?>
<!DOCTYPE svg PUBLIC "-//W3C//DTD SVG 20010904//EN"
 "http://www.w3.org/TR/2001/REC-SVG-20010904/DTD/svg10.dtd">
<svg version="1.0" xmlns="http://www.w3.org/2000/svg"
 width="512.000000pt" height="64.000000pt" viewBox="0 0 512.000000 64.000000"
 preserveAspectRatio="xMidYMid meet">

<g transform="translate(0.000000,64.000000) scale(0.100000,-0.100000)"
fill="#fff" stroke="none">
<path d="M79 451 c-78 -78 -79 -79 -79 -130 0 -28 4 -51 9 -51 4 0 34 34 66
75 57 75 101 115 127 115 7 0 33 -29 57 -64 59 -88 94 -119 131 -119 37 0 58
18 127 111 30 40 59 72 66 69 7 -2 28 -25 47 -52 65 -90 104 -128 134 -127 43
0 71 20 121 87 25 34 54 70 65 80 25 22 37 14 90 -65 53 -77 84 -103 121 -103
35 0 71 34 139 129 20 27 42 49 50 49 8 0 37 -30 65 -67 72 -97 97 -119 134
-120 40 -1 68 24 133 120 27 40 55 72 61 69 7 -2 28 -25 47 -52 68 -95 105
-128 138 -128 39 0 59 17 129 111 30 40 59 72 66 69 7 -2 28 -25 47 -52 19
-27 51 -66 71 -88 63 -70 113 -51 205 79 40 54 58 69 76 58 5 -3 33 -38 62
-78 68 -91 87 -107 125 -108 40 -1 68 25 133 120 27 40 55 72 61 69 7 -2 28
-25 47 -52 124 -171 157 -171 280 1 20 27 42 49 50 49 8 0 36 -31 63 -70 65
-96 87 -116 127 -117 27 -1 41 7 74 44 23 24 57 66 76 94 20 27 42 49 50 49 8
0 36 -31 63 -70 65 -96 87 -116 127 -117 27 -1 41 7 74 44 23 24 57 66 76 94
19 27 42 50 50 52 9 1 33 -24 59 -62 60 -89 94 -119 132 -119 35 0 71 34 139
129 20 27 42 49 50 49 8 0 39 -35 68 -78 58 -84 88 -109 128 -109 32 0 59 26
121 117 27 39 55 70 63 70 8 0 30 -22 50 -49 19 -28 53 -70 76 -95 48 -52 80
-57 138 -22 34 21 36 26 36 73 l0 50 -46 -41 c-25 -22 -52 -37 -59 -35 -8 3
-37 39 -65 79 -59 86 -92 115 -130 115 -38 0 -71 -29 -118 -103 -44 -70 -66
-92 -82 -82 -6 3 -33 40 -60 80 -56 82 -82 105 -121 105 -37 0 -75 -34 -129
-114 -26 -39 -51 -65 -60 -64 -8 2 -29 23 -47 48 -79 108 -103 130 -137 130
-44 0 -75 -26 -137 -116 -34 -48 -58 -74 -68 -72 -9 2 -37 35 -63 73 -59 86
-91 115 -127 115 -39 0 -72 -29 -132 -116 -34 -48 -58 -74 -68 -72 -9 2 -37
35 -63 73 -59 87 -91 115 -128 115 -38 0 -75 -33 -130 -114 -27 -40 -51 -65
-60 -64 -8 2 -31 26 -50 53 -60 84 -104 125 -137 125 -42 0 -64 -20 -124 -110
-33 -49 -60 -79 -69 -78 -8 2 -38 35 -67 73 -65 88 -97 115 -133 115 -36 0
-77 -34 -137 -116 -28 -38 -53 -63 -63 -62 -8 2 -31 26 -50 53 -60 85 -104
125 -137 125 -40 0 -69 -24 -128 -109 -29 -42 -56 -70 -65 -68 -8 1 -31 25
-50 52 -60 84 -104 125 -137 125 -42 0 -64 -20 -124 -110 -30 -44 -59 -80 -66
-80 -7 0 -32 26 -56 57 -23 31 -58 74 -78 95 -65 68 -115 49 -199 -76 -27 -40
-51 -65 -60 -64 -8 2 -31 26 -50 53 -116 163 -164 165 -275 9 -31 -42 -53 -64
-63 -62 -9 2 -33 26 -52 53 -60 85 -104 125 -137 125 -40 0 -69 -24 -128 -109
-29 -40 -56 -70 -65 -68 -8 1 -29 22 -47 47 -84 114 -102 130 -145 130 -37 0
-47 -6 -119 -79z"/>
<path d="M79 251 c-78 -78 -79 -79 -79 -130 0 -28 4 -51 9 -51 4 0 34 34 66
75 57 75 101 115 127 115 7 0 33 -29 57 -64 59 -88 94 -119 131 -119 37 0 58
18 127 111 30 40 59 72 66 69 7 -2 28 -25 47 -52 65 -90 104 -128 134 -127 43
0 71 20 121 87 25 34 54 70 65 80 25 22 37 14 90 -65 53 -77 84 -103 121 -103
35 0 71 34 139 129 20 27 42 49 50 49 8 0 37 -30 65 -67 72 -97 97 -119 134
-120 40 -1 68 24 133 120 27 40 55 72 61 69 7 -2 28 -25 47 -52 68 -95 105
-128 138 -128 39 0 59 17 129 111 30 40 59 72 66 69 7 -2 28 -25 47 -52 19
-27 51 -66 71 -88 63 -70 113 -51 205 79 40 54 58 69 76 58 5 -3 33 -38 62
-78 68 -91 87 -107 125 -108 40 -1 68 25 133 120 27 40 55 72 61 69 7 -2 28
-25 47 -52 124 -171 157 -171 280 1 20 27 42 49 50 49 8 0 36 -31 63 -70 65
-96 87 -116 127 -117 27 -1 41 7 74 44 23 24 57 66 76 94 20 27 42 49 50 49 8
0 36 -31 63 -70 65 -96 87 -116 127 -117 27 -1 41 7 74 44 23 24 57 66 76 94
19 27 42 50 50 52 9 1 33 -24 59 -62 60 -89 94 -119 132 -119 35 0 71 34 139
129 20 27 42 49 50 49 8 0 39 -35 68 -78 58 -84 88 -109 128 -109 32 0 59 26
121 117 27 39 55 70 63 70 8 0 30 -22 50 -49 19 -28 53 -70 76 -95 48 -52 80
-57 138 -22 34 21 36 26 36 73 l0 50 -46 -41 c-25 -22 -52 -37 -59 -35 -8 3
-37 39 -65 79 -59 86 -92 115 -130 115 -38 0 -71 -29 -118 -103 -44 -70 -66
-92 -82 -82 -6 3 -33 40 -60 80 -56 82 -82 105 -121 105 -37 0 -75 -34 -129
-114 -26 -39 -51 -65 -60 -64 -8 2 -29 23 -47 48 -79 108 -103 130 -137 130
-44 0 -75 -26 -137 -116 -34 -48 -58 -74 -68 -72 -9 2 -37 35 -63 73 -59 86
-91 115 -127 115 -39 0 -72 -29 -132 -116 -34 -48 -58 -74 -68 -72 -9 2 -37
35 -63 73 -59 87 -91 115 -128 115 -38 0 -75 -33 -130 -114 -27 -40 -51 -65
-60 -64 -8 2 -31 26 -50 53 -60 84 -104 125 -137 125 -42 0 -64 -20 -124 -110
-33 -49 -60 -79 -69 -78 -8 2 -38 35 -67 73 -65 88 -97 115 -133 115 -36 0
-77 -34 -137 -116 -28 -38 -53 -63 -63 -62 -8 2 -31 26 -50 53 -60 85 -104
125 -137 125 -40 0 -69 -24 -128 -109 -29 -42 -56 -70 -65 -68 -8 1 -31 25
-50 52 -60 84 -104 125 -137 125 -42 0 -64 -20 -124 -110 -30 -44 -59 -80 -66
-80 -7 0 -32 26 -56 57 -23 31 -58 74 -78 95 -65 68 -115 49 -199 -76 -27 -40
-51 -65 -60 -64 -8 2 -31 26 -50 53 -116 163 -164 165 -275 9 -31 -42 -53 -64
-63 -62 -9 2 -33 26 -52 53 -60 85 -104 125 -137 125 -40 0 -69 -24 -128 -109
-29 -40 -56 -70 -65 -68 -8 1 -29 22 -47 47 -84 114 -102 130 -145 130 -37 0
-47 -6 -119 -79z"/>
</g>
</svg>
