<?xml version="1.0" standalone="no"?>
<!DOCTYPE svg PUBLIC "-//W3C//DTD SVG 20010904//EN"
 "http://www.w3.org/TR/2001/REC-SVG-20010904/DTD/svg10.dtd">
<svg version="1.0" xmlns="http://www.w3.org/2000/svg"
 width="95.000000pt" height="30.000000pt" viewBox="350 -340.000000 320.000000 320.000000"
 preserveAspectRatio="xMidYMax meet" fill="rgba(256,256,256,0.3)" stroke="white" stroke-width="30">

<g transform="translate(0.000000,0.000000) scale(0.100000,-0.100000)">
<path d="M4004 3292 c-12 -4 -45 -29 -74 -56 -49 -46 -53 -53 -63 -118 -8 -52 -7 -89 3 -156 7 -48 15 -114 17 -147 2 -33 11 -74 19 -92 8 -17 14 -38 14 -47 0 -18 25 -100 97 -318 52 -156 51 -162 -25 -173 -63 -9 -75 -17 -157 -94 -69 -66 -119 -91 -177 -91 -30 0 -94 25 -103 40 -4 6 -18 15 -31 20 -26 10 -74 72 -110 142 -30 59 -62 82 -104 73 -32 -7 -34 -12 -45 -100 -28 -221 -51 -300 -103 -357 -43 -46 -86 -32 -112 36 -14 37 -30 147 -39 270 -8 106 -19 126 -68 126 -29 0 -39 -20 -47 -99 -11 -100 -61 -185 -173 -293 -131 -126 -200 -103 -250 85 -14 49 -17 109 -17 292 0 289 12 441 37 460 23 16 73 23 242 30 167 8 165 7 165 55 0 21 -5 42 -12 46 -6 4 -87 15 -180 24 -92 10 -175 23 -182 30 -8 6 -18 25 -21 41 -13 60 -117 60 -130 -1 -12 -55 -26 -60 -268 -85 -63 -7 -87 -24 -87 -60 0 -35 21 -42 155 -50 66 -4 129 -12 139 -17 18 -10 19 -20 12 -174 -4 -89 -11 -189 -16 -221 -6 -32 -10 -87 -10 -123 0 -79 -7 -107 -28 -115 -9 -3 -77 -10 -151 -16 -75 -5 -163 -14 -196 -19 -33 -5 -86 -13 -119 -16 -58 -7 -59 -7 -90 30 -26 30 -41 38 -91 47 -64 12 -221 4 -231 -12 -3 -5 -15 -9 -27 -9 -28 0 -262 -87 -432 -161 -95 -41 -269 -102 -341 -120 -157 -38 -243 -38 -263 0 -12 22 3 87 23 98 7 5 24 28 36 52 12 25 29 51 36 59 8 7 14 17 14 20 0 4 10 18 23 32 12 14 36 43 52 65 33 44 135 144 148 145 4 0 21 13 37 30 16 17 35 30 41 30 6 0 29 18 52 40 22 22 56 48 76 57 20 9 38 20 41 25 3 4 72 41 153 82 137 68 188 89 292 117 22 6 54 17 70 25 27 12 156 36 163 29 2 -1 -7 -19 -19 -39 -32 -54 -14 -136 29 -136 18 0 102 39 118 55 7 6 15 42 18 81 10 99 -9 132 -88 158 l-59 19 -146 -27 c-135 -25 -251 -56 -293 -77 -10 -5 -23 -9 -29 -9 -11 0 -110 -48 -179 -87 -146 -83 -152 -87 -214 -130 -26 -18 -50 -33 -53 -33 -24 0 -363 -339 -363 -362 0 -3 -24 -47 -54 -97 -62 -105 -81 -163 -73 -227 6 -59 31 -93 88 -121 70 -36 151 -40 266 -14 127 29 393 113 513 163 246 102 450 171 476 161 31 -12 10 -35 -68 -74 -136 -69 -259 -175 -289 -249 -14 -37 -18 -127 -6 -171 14 -55 169 -84 245 -45 79 41 181 124 182 147 0 4 13 22 30 40 16 19 46 74 67 122 20 49 46 95 58 103 44 29 299 80 455 91 101 7 113 -1 145 -97 45 -136 118 -194 241 -193 78 1 155 34 234 103 32 27 65 50 74 50 9 0 28 -24 46 -60 38 -76 69 -93 165 -93 133 1 191 50 240 203 30 92 34 94 127 51 99 -47 133 -53 214 -39 39 6 78 9 86 5 10 -3 19 -24 23 -55 5 -37 16 -61 42 -91 47 -56 85 -73 157 -74 80 0 143 29 223 105 l62 59 51 -38 c106 -78 130 -90 210 -105 149 -27 284 25 418 162 52 53 54 54 69 35 8 -11 23 -38 34 -61 56 -116 198 -179 349 -155 64 10 270 102 270 120 0 11 62 41 83 41 9 0 19 -9 22 -21 14 -44 57 -93 102 -116 39 -20 63 -25 125 -25 88 -1 127 14 174 64 40 42 49 60 64 131 9 45 15 57 30 57 21 0 86 -27 110 -46 16 -12 36 -18 142 -38 59 -11 79 -11 155 4 95 18 191 61 235 105 32 32 46 88 28 110 -21 25 -84 19 -121 -12 -35 -29 -109 -67 -164 -82 -49 -13 -168 18 -275 71 -61 31 -100 60 -145 106 -70 73 -95 88 -178 103 -84 15 -176 -2 -209 -39 -25 -30 -28 -33 -76 -116 -19 -31 -47 -66 -64 -79 -16 -12 -48 -38 -71 -58 -61 -51 -150 -108 -205 -128 -97 -37 -105 -38 -142 -18 -91 49 -139 128 -166 274 -16 85 -20 93 -44 98 -51 11 -76 -10 -175 -146 -65 -89 -127 -148 -193 -182 -92 -47 -114 -51 -166 -29 -44 20 -182 152 -196 187 -7 19 15 93 54 188 21 49 31 361 17 512 -26 277 -58 382 -155 515 -47 65 -84 83 -175 86 -42 2 -86 0 -97 -4z m128 -132 c53 -41 133 -245 154 -390 21 -146 19 -234 -12 -485 -11 -91 -41 -82 -82 23 -35 88 -114 325 -130 392 -19 74 -40 191 -48 258 -8 71 14 161 49 200 25 27 37 28 69 2z m1928 -1055 c51 -26 92 -132 78 -199 -14 -68 -73 -126 -126 -126 -26 0 -69 35 -88 72 -24 47 -34 137 -19 173 15 38 79 95 106 95 11 0 33 -7 49 -15z m-1950 -93 c28 -27 50 -55 50 -63 0 -42 -91 -131 -149 -146 -19 -5 -30 1 -53 26 -22 25 -28 41 -28 79 0 49 12 74 58 125 37 39 64 35 122 -21z m-2610 -277 c0 -15 -54 -86 -96 -126 -54 -52 -92 -69 -105 -48 -16 27 41 96 126 153 36 23 75 34 75 21z"/>
<path fill="rgba(184,142,80,0.3)" d="M5270 2918 l0 -31 -23 21 c-60 56 -76 2 -27 -87 36 -64 39 -106 9 -121 -11 -6 -65 -20 -120 -31 -162 -31 -245 -84 -299 -191 -34 -70 -36 -85 -15 -154 14 -49 48 -90 92 -113 25 -13 281 -17 293 -5 15 15 -5 35 -41 44 l-34 8 32 1 c17 1 35 6 39 13 10 15 -24 38 -58 38 -15 0 -28 2 -28 5 0 9 54 54 65 55 6 0 23 -29 39 -64 23 -53 35 -69 67 -85 22 -12 48 -21 59 -21 26 0 26 31 0 55 -21 19 -40 73 -40 114 0 16 14 36 40 59 48 41 76 90 85 155 7 42 11 49 41 62 29 12 34 19 34 48 0 39 -35 77 -92 101 -32 14 -37 21 -47 67 -15 66 -27 89 -51 89 -16 0 -20 -7 -20 -32z"/>
<path d="M7433 2269 c-45 -13 -92 -77 -111 -152 -45 -182 0 -478 129 -829 34 -94 31 -118 -15 -118 -38 0 -120 -46 -158 -88 -21 -23 -38 -46 -38 -51 0 -13 -179 -186 -225 -217 -75 -51 -97 -56 -142 -33 -30 14 -46 32 -63 67 -36 74 -42 93 -69 197 -35 138 -52 157 -145 163 -92 6 -124 -8 -171 -73 -22 -30 -45 -55 -51 -55 -15 0 -24 23 -24 61 0 46 -34 72 -83 66 -24 -3 -46 -13 -53 -24 -19 -28 -74 -98 -121 -154 -24 -27 -43 -54 -43 -59 0 -30 -216 -193 -272 -205 -33 -8 -92 21 -136 66 -43 44 -38 61 23 76 70 17 85 39 85 125 0 113 -46 178 -136 193 -99 16 -154 -18 -187 -115 -20 -60 -26 -67 -76 -97 -114 -68 -196 -65 -276 8 -34 31 -47 54 -66 115 -27 86 -49 106 -95 86 -18 -9 -38 -39 -71 -110 -82 -175 -138 -282 -148 -282 -12 0 -35 47 -35 71 0 10 -4 21 -10 24 -5 3 -10 13 -10 22 0 8 -6 29 -14 46 -8 18 -24 64 -36 102 -34 111 -59 127 -138 89 -55 -26 -67 -38 -75 -75 -7 -28 -164 -192 -206 -214 -14 -7 -39 -28 -55 -45 -32 -34 -85 -64 -133 -74 -40 -9 -67 15 -83 75 -13 47 -11 65 14 182 23 105 19 147 -16 166 -24 14 -30 14 -63 -2 -34 -16 -37 -16 -76 4 -22 11 -62 23 -88 26 -68 8 -162 -35 -203 -91 -32 -46 -288 -306 -300 -306 -4 0 -30 -19 -57 -42 -72 -61 -108 -88 -119 -88 -5 0 -17 -9 -27 -20 -10 -11 -22 -20 -27 -20 -4 0 -27 -8 -51 -19 -57 -25 -92 -37 -155 -52 -47 -12 -60 -11 -105 5 -68 23 -174 93 -215 142 -61 71 -182 276 -182 307 0 7 -9 32 -20 55 -11 22 -20 54 -20 71 0 16 -4 33 -10 36 -5 3 -10 17 -10 30 0 13 -4 26 -9 29 -5 3 -11 20 -14 38 -3 18 -12 67 -20 108 -8 41 -23 125 -32 185 -17 115 -28 135 -71 135 -12 0 -32 -9 -45 -19 -20 -16 -24 -28 -24 -78 1 -68 19 -207 41 -313 41 -190 147 -495 188 -535 8 -9 24 -35 35 -58 28 -62 163 -189 231 -216 30 -12 66 -27 79 -34 39 -20 274 -16 343 6 113 35 231 97 328 174 56 44 111 83 118 83 5 0 15 -15 23 -33 19 -44 77 -71 154 -71 65 -1 112 17 209 79 30 19 57 35 60 35 3 0 17 -18 31 -40 16 -25 35 -42 53 -46 15 -3 36 -9 47 -14 58 -24 113 -16 209 31 83 40 124 67 170 111 21 21 44 38 50 38 11 0 28 19 92 98 18 22 34 32 48 30 22 -3 31 -22 90 -190 35 -98 62 -128 114 -128 43 0 102 21 119 42 10 12 33 52 61 104 6 11 22 45 37 77 31 67 47 77 78 49 69 -63 189 -88 317 -65 161 28 142 32 183 -34 72 -116 102 -139 209 -159 56 -11 80 -11 136 0 119 23 191 66 313 186 39 39 74 70 79 70 20 0 32 -36 41 -127 6 -54 17 -108 24 -120 35 -52 100 -36 134 33 13 25 31 53 42 63 10 9 31 46 45 82 36 88 70 153 87 167 21 18 32 0 57 -97 25 -99 69 -191 105 -219 37 -29 126 -46 199 -37 82 9 175 41 202 70 11 12 31 28 44 35 21 11 26 9 52 -21 15 -19 30 -42 33 -51 4 -10 18 -21 33 -24 15 -4 33 -11 40 -17 8 -6 41 -11 75 -11 82 1 139 27 208 98 31 31 65 56 76 56 11 0 35 -15 54 -32 38 -37 44 -41 125 -85 102 -53 200 -53 319 2 31 14 58 25 61 25 7 0 24 18 57 63 15 20 36 37 45 37 10 0 35 -23 55 -50 69 -93 218 -132 356 -95 71 18 173 71 225 115 22 20 58 48 79 63 20 16 44 41 52 56 32 63 156 129 190 101 7 -6 15 -34 19 -64 8 -76 52 -187 84 -214 66 -55 164 -80 245 -62 122 27 166 52 261 145 86 85 131 196 94 233 -23 23 -77 14 -103 -15 -13 -16 -63 -69 -112 -118 -70 -72 -99 -94 -140 -108 -60 -21 -81 -17 -130 26 -47 41 -53 62 -62 200 -9 147 -13 153 -112 150 -69 -2 -69 -2 -83 30 -22 53 -51 72 -111 72 -92 0 -133 -62 -120 -182 l7 -65 -65 -61 c-97 -93 -136 -122 -201 -151 -109 -50 -175 -44 -226 21 -33 43 -23 66 34 80 73 18 81 29 81 126 0 124 -40 177 -142 193 -98 15 -144 -15 -181 -118 -40 -107 -54 -131 -127 -207 -68 -71 -111 -104 -166 -128 -23 -10 -35 -7 -85 17 -63 30 -84 47 -151 122 -49 54 -53 78 -27 168 25 91 34 148 45 295 14 173 14 168 2 345 -9 125 -16 159 -47 249 -44 127 -96 223 -139 255 -63 48 -152 66 -224 45z m169 -204 c34 -65 55 -125 77 -215 48 -198 56 -282 41 -403 -35 -277 -59 -308 -116 -147 -14 41 -32 89 -39 105 -95 221 -153 580 -110 682 22 53 45 74 74 71 21 -2 34 -20 73 -93z m-3896 -1011 c43 -44 43 -64 1 -111 -19 -21 -36 -46 -40 -55 -3 -9 -24 -28 -46 -42 -21 -14 -42 -30 -46 -36 -11 -18 -86 -52 -101 -46 -18 7 -12 54 18 141 24 66 46 104 92 153 41 44 78 43 122 -4z m1912 -5 c4 -19 -27 -34 -41 -20 -14 14 0 43 20 39 10 -2 19 -10 21 -19z m2922 -5 c0 -8 -9 -14 -20 -14 -22 0 -28 26 -7 33 16 6 27 -1 27 -19z m-1013 -56 c70 -51 70 -69 -6 -141 -70 -67 -101 -78 -139 -50 -45 33 -50 79 -17 152 31 68 59 94 90 85 11 -4 43 -24 72 -46z"/>
</g>
</svg>
