<?xml version="1.0" standalone="no"?>
<!DOCTYPE svg PUBLIC "-//W3C//DTD SVG 20010904//EN"
 "http://www.w3.org/TR/2001/REC-SVG-20010904/DTD/svg10.dtd">
<svg version="1.0" xmlns="http://www.w3.org/2000/svg"
 width="1280.000000pt" height="256.000000pt" viewBox="0 0 1280.000000 256.000000"
 preserveAspectRatio="xMidYMid meet">

<g transform="translate(0.000000,256.000000) scale(0.100000,-0.100000)"
fill="white" stroke="none">
<path d="M1055 2098 c-65 -43 -255 -208 -384 -333 -105 -102 -171 -189 -171
-226 0 -8 -14 -28 -31 -45 -88 -82 -132 -231 -108 -362 15 -80 69 -192 120
-247 28 -30 43 -56 44 -73 0 -41 51 -62 148 -62 83 0 136 16 175 53 31 29 140
37 177 13 14 -10 48 -20 75 -23 28 -3 50 -9 50 -14 0 -19 -13 -39 -27 -39 -24
0 -76 -31 -115 -68 -32 -31 -38 -42 -38 -79 0 -37 4 -44 29 -58 24 -12 40 -13
82 -5 28 6 69 10 89 10 36 0 38 -2 52 -44 14 -43 14 -45 -6 -50 -12 -3 -34 -6
-50 -6 -16 0 -61 -15 -100 -34 -59 -29 -74 -40 -84 -68 -32 -89 -6 -105 178
-109 100 -2 145 1 223 19 53 12 105 25 115 31 9 5 51 12 92 16 178 17 303 79
430 212 102 106 159 209 206 369 35 117 40 324 10 418 -51 164 -227 365 -381
436 -121 55 -227 61 -435 24 -109 -20 -269 -71 -296 -95 -36 -33 -35 -21 5 59
21 42 47 111 56 152 10 41 27 88 38 103 27 40 33 98 13 130 -15 22 -23 25 -77
24 -49 0 -69 -6 -104 -29z m157 5 c11 -9 18 -30 18 -50 0 -28 -23 -66 -120
-201 -213 -296 -234 -323 -282 -364 -31 -26 -48 -47 -47 -61 0 -18 2 -19 7 -6
4 9 30 37 57 62 28 25 75 79 105 121 225 313 221 308 227 302 9 -9 -29 -110
-90 -236 -61 -126 -112 -190 -213 -271 -48 -38 -29 -38 23 0 l41 30 23 -25
c18 -19 19 -23 6 -18 -19 7 -23 -6 -6 -23 6 -6 13 -32 14 -57 4 -55 24 -98 25
-53 0 16 -5 37 -10 48 -7 13 -7 19 -1 19 7 0 7 9 1 25 -5 14 -7 31 -4 39 3 8
-5 23 -17 35 l-22 20 44 48 c24 27 53 64 63 84 25 48 100 93 215 129 102 32
132 37 291 49 243 20 365 -38 541 -256 112 -140 145 -247 135 -430 -13 -205
-93 -398 -223 -534 -98 -103 -151 -140 -241 -173 -64 -23 -246 -60 -269 -55
-11 3 -63 -10 -88 -22 -62 -29 -384 -41 -419 -16 -49 36 44 131 154 156 74 17
97 13 146 -25 68 -52 118 -74 161 -73 l38 2 -40 7 c-74 13 -184 94 -210 155
-18 42 -18 159 -1 219 18 63 19 72 1 68 -21 -4 -76 27 -108 62 l-29 30 5 -32
c5 -30 3 -32 -16 -26 -38 11 -97 54 -97 70 0 14 -2 14 -16 3 -14 -11 -18 -10
-30 6 -8 10 -17 16 -21 12 -3 -4 2 -16 12 -27 18 -20 17 -20 -9 -20 -36 0 -91
-24 -129 -56 -31 -26 -34 -26 -145 -22 -84 3 -116 8 -123 19 -16 26 -10 29 50
23 54 -6 66 -3 147 34 49 22 100 42 114 45 47 11 64 31 55 63 l-8 29 -6 -29
c-5 -25 -16 -33 -76 -57 -38 -16 -83 -36 -98 -44 -42 -25 -88 -36 -123 -29
-35 6 -134 95 -158 143 -30 58 -66 184 -66 233 0 117 57 247 129 295 19 13 29
23 24 23 -16 0 -3 51 22 88 39 57 165 182 315 312 171 148 227 190 253 190 15
0 2 -17 -49 -68 -182 -181 -237 -250 -316 -394 -27 -51 -59 -103 -70 -115 -18
-19 -19 -25 -8 -38 12 -14 15 -13 26 15 7 17 14 34 14 38 1 4 7 14 14 22 8 8
23 36 34 62 42 96 150 235 300 386 53 53 116 102 131 102 3 0 13 -7 23 -17z
m25 -1357 c3 -3 -23 -75 -30 -82 -10 -10 -47 59 -47 88 l0 27 38 -16 c20 -8
38 -16 39 -17z m-82 -55 c8 -16 24 -32 35 -36 16 -5 20 -15 20 -50 0 -36 -4
-44 -22 -49 -42 -11 -183 -7 -196 6 -32 32 7 101 77 138 50 27 68 25 86 -9z"/>
<path d="M978 1194 c11 -23 18 -31 20 -21 4 19 -15 57 -28 57 -5 0 -2 -16 8
-36z"/>
<path d="M973 1131 c6 -16 14 -28 19 -25 9 6 -6 47 -20 52 -8 2 -7 -5 1 -27z"/>
<path d="M670 1127 c0 -36 -14 -63 -53 -104 -22 -24 -27 -33 -15 -33 22 0 75
63 83 99 3 17 2 38 -4 48 -9 16 -10 14 -11 -10z"/>
<path d="M1537 1100 c15 -16 98 -26 107 -12 4 7 -8 11 -36 9 -24 0 -52 3 -63
7 -16 7 -18 6 -8 -4z"/>
<path d="M960 1073 c0 -18 5 -33 10 -33 13 0 13 30 0 50 -7 11 -10 7 -10 -17z"/>
<path d="M1497 1050 c6 -7 36 -14 65 -16 l53 -3 -44 9 c-23 5 -53 12 -65 16
-17 5 -19 4 -9 -6z"/>
<path d="M933 1027 c0 -7 7 -19 15 -26 12 -11 13 -10 10 10 -3 24 -25 38 -25
16z"/>
<path d="M1450 1016 c0 -3 18 -15 40 -26 34 -17 44 -19 63 -8 21 12 19 13 -23
19 -25 3 -53 9 -62 14 -10 4 -18 4 -18 1z"/>
<path d="M914 997 c3 -10 6 -27 6 -38 0 -10 5 -19 10 -19 15 0 12 34 -6 56
-14 17 -15 17 -10 1z"/>
<path d="M1410 959 c0 -4 18 -13 40 -19 42 -11 80 -6 80 10 0 5 -6 7 -13 5 -7
-3 -34 -1 -60 4 -26 4 -47 5 -47 0z"/>
<path d="M1455 909 c-5 -8 -26 -10 -64 -6 -52 5 -54 5 -31 -8 36 -20 96 -19
104 1 8 20 1 30 -9 13z"/>
<path d="M1291 864 c12 -15 74 -37 88 -32 5 2 -15 13 -45 24 -34 14 -50 17
-43 8z"/>
<path d="M1220 838 c0 -24 25 -39 72 -44 l43 -4 -39 15 c-22 8 -48 23 -58 32
-16 14 -18 14 -18 1z"/>
<path d="M8735 2098 c-65 -43 -255 -208 -384 -333 -105 -102 -171 -189 -171
-226 0 -8 -14 -28 -31 -45 -88 -82 -132 -231 -108 -362 15 -80 69 -192 120
-247 28 -30 43 -56 44 -73 0 -41 51 -62 148 -62 83 0 136 16 175 53 31 29 140
37 177 13 14 -10 48 -20 75 -23 28 -3 50 -9 50 -14 0 -19 -13 -39 -27 -39 -24
0 -76 -31 -115 -68 -32 -31 -38 -42 -38 -79 0 -37 4 -44 29 -58 24 -12 40 -13
82 -5 28 6 69 10 89 10 36 0 38 -2 52 -44 14 -43 14 -45 -6 -50 -12 -3 -34 -6
-50 -6 -16 0 -61 -15 -100 -34 -59 -29 -74 -40 -84 -68 -32 -89 -6 -105 178
-109 100 -2 145 1 223 19 53 12 105 25 115 31 9 5 51 12 92 16 178 17 303 79
430 212 102 106 159 209 206 369 35 117 40 324 10 418 -51 164 -227 365 -381
436 -121 55 -227 61 -435 24 -109 -20 -269 -71 -296 -95 -36 -33 -35 -21 5 59
21 42 47 111 56 152 10 41 27 88 38 103 27 40 33 98 13 130 -15 22 -23 25 -77
24 -49 0 -69 -6 -104 -29z m157 5 c11 -9 18 -30 18 -50 0 -28 -23 -66 -120
-201 -213 -296 -234 -323 -282 -364 -31 -26 -48 -47 -47 -61 0 -18 2 -19 7 -6
4 9 30 37 57 62 28 25 75 79 105 121 225 313 221 308 227 302 9 -9 -29 -110
-90 -236 -61 -126 -112 -190 -213 -271 -48 -38 -29 -38 23 0 l41 30 23 -25
c18 -19 19 -23 6 -18 -19 7 -23 -6 -6 -23 6 -6 13 -32 14 -57 4 -55 24 -98 25
-53 0 16 -5 37 -10 48 -7 13 -7 19 -1 19 7 0 7 9 1 25 -5 14 -7 31 -4 39 3 8
-5 23 -17 35 l-22 20 44 48 c24 27 53 64 63 84 25 48 100 93 215 129 102 32
132 37 291 49 243 20 365 -38 541 -256 112 -140 145 -247 135 -430 -13 -205
-93 -398 -223 -534 -98 -103 -151 -140 -241 -173 -64 -23 -246 -60 -269 -55
-11 3 -63 -10 -88 -22 -62 -29 -384 -41 -419 -16 -49 36 44 131 154 156 74 17
97 13 146 -25 68 -52 118 -74 161 -73 l38 2 -40 7 c-74 13 -184 94 -210 155
-18 42 -18 159 -1 219 18 63 19 72 1 68 -21 -4 -76 27 -108 62 l-29 30 5 -32
c5 -30 3 -32 -16 -26 -38 11 -97 54 -97 70 0 14 -2 14 -16 3 -14 -11 -18 -10
-30 6 -8 10 -17 16 -21 12 -3 -4 2 -16 12 -27 18 -20 17 -20 -9 -20 -36 0 -91
-24 -129 -56 -31 -26 -34 -26 -145 -22 -84 3 -116 8 -123 19 -16 26 -10 29 50
23 54 -6 66 -3 147 34 49 22 100 42 114 45 47 11 64 31 55 63 l-8 29 -6 -29
c-5 -25 -16 -33 -76 -57 -38 -16 -83 -36 -98 -44 -42 -25 -88 -36 -123 -29
-35 6 -134 95 -158 143 -30 58 -66 184 -66 233 0 117 57 247 129 295 19 13 29
23 24 23 -16 0 -3 51 22 88 39 57 165 182 315 312 171 148 227 190 253 190 15
0 2 -17 -49 -68 -182 -181 -237 -250 -316 -394 -27 -51 -59 -103 -70 -115 -18
-19 -19 -25 -8 -38 12 -14 15 -13 26 15 7 17 14 34 14 38 1 4 7 14 14 22 8 8
23 36 34 62 42 96 150 235 300 386 53 53 116 102 131 102 3 0 13 -7 23 -17z
m25 -1357 c3 -3 -23 -75 -30 -82 -10 -10 -47 59 -47 88 l0 27 38 -16 c20 -8
38 -16 39 -17z m-82 -55 c8 -16 24 -32 35 -36 16 -5 20 -15 20 -50 0 -36 -4
-44 -22 -49 -42 -11 -183 -7 -196 6 -32 32 7 101 77 138 50 27 68 25 86 -9z"/>
<path d="M8658 1194 c11 -23 18 -31 20 -21 4 19 -15 57 -28 57 -5 0 -2 -16 8
-36z"/>
<path d="M8653 1131 c6 -16 14 -28 19 -25 9 6 -6 47 -20 52 -8 2 -7 -5 1 -27z"/>
<path d="M8350 1127 c0 -36 -14 -63 -53 -104 -22 -24 -27 -33 -15 -33 22 0 75
63 83 99 3 17 2 38 -4 48 -9 16 -10 14 -11 -10z"/>
<path d="M9217 1100 c15 -16 98 -26 107 -12 4 7 -8 11 -36 9 -24 0 -52 3 -63
7 -16 7 -18 6 -8 -4z"/>
<path d="M8640 1073 c0 -18 5 -33 10 -33 13 0 13 30 0 50 -7 11 -10 7 -10 -17z"/>
<path d="M9177 1050 c6 -7 36 -14 65 -16 l53 -3 -44 9 c-23 5 -53 12 -65 16
-17 5 -19 4 -9 -6z"/>
<path d="M8613 1027 c0 -7 7 -19 15 -26 12 -11 13 -10 10 10 -3 24 -25 38 -25
16z"/>
<path d="M9130 1016 c0 -3 18 -15 40 -26 34 -17 44 -19 63 -8 21 12 19 13 -23
19 -25 3 -53 9 -62 14 -10 4 -18 4 -18 1z"/>
<path d="M8594 997 c3 -10 6 -27 6 -38 0 -10 5 -19 10 -19 15 0 12 34 -6 56
-14 17 -15 17 -10 1z"/>
<path d="M9090 959 c0 -4 18 -13 40 -19 42 -11 80 -6 80 10 0 5 -6 7 -13 5 -7
-3 -34 -1 -60 4 -26 4 -47 5 -47 0z"/>
<path d="M9135 909 c-5 -8 -26 -10 -64 -6 -52 5 -54 5 -31 -8 36 -20 96 -19
104 1 8 20 1 30 -9 13z"/>
<path d="M8971 864 c12 -15 74 -37 88 -32 5 2 -15 13 -45 24 -34 14 -50 17
-43 8z"/>
<path d="M8900 838 c0 -24 25 -39 72 -44 l43 -4 -39 15 c-22 8 -48 23 -58 32
-16 14 -18 14 -18 1z"/>
<path d="M4080 1764 c-132 -20 -185 -31 -244 -51 -38 -12 -76 -23 -84 -23 -8
0 -55 -24 -106 -54 -74 -44 -115 -79 -218 -184 -134 -139 -138 -141 -138 -57
0 39 -6 50 -44 90 -25 25 -51 44 -58 43 -24 -5 -67 -72 -68 -105 0 -32 0 -32
-27 -17 -16 7 -43 14 -62 14 -28 0 -32 -3 -26 -17 26 -64 38 -123 44 -232 6
-113 9 -126 29 -139 18 -12 22 -24 22 -67 0 -66 38 -127 112 -177 103 -70 128
-78 235 -78 110 0 136 10 158 63 12 29 16 31 57 28 23 -1 44 -4 46 -6 9 -8
-12 -56 -23 -52 -20 8 -88 -28 -122 -65 -45 -47 -52 -89 -20 -121 23 -24 28
-25 123 -20 l99 6 12 -44 c6 -24 11 -45 10 -45 -1 -1 -27 -5 -57 -8 -32 -3
-82 -19 -120 -38 -57 -29 -67 -38 -80 -76 -17 -51 -8 -73 36 -84 57 -13 247
-25 283 -17 20 5 86 20 146 33 61 14 139 27 175 29 83 7 207 48 282 94 95 59
207 185 266 300 98 191 131 381 97 548 -26 127 -82 224 -197 343 -142 147
-242 192 -423 190 -49 0 -101 -2 -115 -4z m252 -28 c119 -26 194 -78 308 -213
100 -120 134 -185 155 -298 32 -168 -2 -353 -99 -540 -46 -90 -160 -217 -249
-278 -63 -43 -179 -85 -257 -93 -110 -10 -215 -27 -226 -36 -38 -29 -382 -31
-421 -2 -17 12 -17 15 2 51 30 56 125 103 209 103 54 0 66 -3 87 -26 26 -28
118 -83 146 -88 10 -2 27 0 38 5 16 6 13 8 -16 8 -45 1 -153 72 -191 127 -37
52 -43 136 -17 236 23 88 23 89 5 82 -31 -12 -161 100 -150 130 3 7 -2 26 -11
42 -8 16 -15 37 -15 46 0 10 -6 17 -12 15 -7 -1 -17 13 -22 30 -6 18 -16 32
-22 30 -7 -1 -41 19 -76 44 -34 26 -73 50 -85 53 -13 4 -23 13 -23 20 0 20
112 137 177 187 80 59 132 109 149 142 22 41 3 32 -33 -18 -18 -24 -58 -60
-89 -81 -59 -39 -175 -153 -207 -204 -24 -39 -64 -42 -72 -5 -3 14 -7 37 -10
51 -4 19 1 33 19 53 14 14 45 50 71 79 93 109 217 207 333 266 153 77 440 116
604 82z m-1097 -272 c26 -34 34 -67 48 -204 1 -8 -2 -16 -8 -17 -11 -3 -12 6
-14 91 -1 52 -4 61 -35 92 -19 19 -37 40 -39 47 -3 7 -6 4 -6 -6 -1 -24 18
-59 41 -75 14 -11 18 -27 18 -82 0 -65 2 -71 33 -99 l32 -31 -25 0 c-21 0 -29
7 -39 38 -8 20 -34 62 -58 92 -41 50 -45 59 -40 97 5 47 30 93 51 93 8 0 26
-16 41 -36z m-119 -101 c43 -46 71 -108 75 -161 3 -35 -1 -45 -20 -58 -21 -15
-23 -23 -19 -70 3 -29 11 -61 19 -70 22 -27 85 -51 191 -73 53 -11 111 -26
130 -34 32 -14 108 -81 108 -95 0 -25 -42 -70 -70 -76 -59 -11 -75 -7 -93 24
-10 16 -22 30 -28 30 -12 0 -12 -17 1 -25 6 -3 10 -13 10 -22 0 -22 -58 -10
-129 27 -62 32 -154 120 -170 163 -16 42 -14 77 5 77 11 0 7 8 -14 28 -36 34
-38 42 -50 193 -6 71 -16 128 -26 147 l-17 32 32 0 c23 0 40 -9 65 -37z m118
-170 c6 -17 3 -23 -8 -23 -10 0 -16 9 -16 23 0 12 -3 33 -6 47 l-5 25 14 -25
c8 -14 18 -35 21 -47z m169 -44 c21 -5 61 -29 90 -53 61 -50 145 -169 146
-208 1 -17 9 -32 21 -38 21 -11 28 -40 9 -40 -15 0 -99 53 -99 62 0 14 -97 50
-195 73 -55 13 -121 32 -147 43 -41 18 -48 26 -58 62 -6 22 -9 49 -5 58 12 41
153 65 238 41z m342 -379 c3 -5 17 -10 31 -10 13 0 24 -4 24 -9 0 -18 -31 -81
-40 -81 -14 0 -40 55 -40 85 0 25 14 34 25 15z m-30 -75 c10 -19 26 -37 36
-40 17 -6 20 -14 17 -48 l-3 -42 -90 -6 c-49 -4 -100 -3 -112 2 -54 20 -9 113
72 150 55 25 62 24 80 -16z"/>
<path d="M4110 1096 c31 -18 92 -24 97 -11 2 7 -12 11 -34 11 -21 -1 -49 3
-63 7 l-25 8 25 -15z"/>
<path d="M4057 1050 c15 -16 104 -33 116 -21 5 5 -12 11 -40 13 -26 3 -57 9
-68 13 -16 6 -18 5 -8 -5z"/>
<path d="M4030 1005 c18 -22 67 -38 85 -28 12 7 3 13 -40 25 -41 11 -53 12
-45 3z"/>
<path d="M3960 959 c0 -13 110 -33 121 -22 6 6 -12 13 -56 19 -36 6 -65 7 -65
3z"/>
<path d="M4015 910 c-5 -8 -25 -11 -58 -7 -45 4 -48 3 -32 -9 26 -19 94 -18
102 1 7 20 -2 31 -12 15z"/>
<path d="M3860 865 c14 -17 76 -38 93 -32 6 3 3 6 -8 6 -12 1 -38 10 -58 20
-24 12 -34 14 -27 6z"/>
<path d="M3780 843 c1 -26 45 -53 87 -52 l28 1 -30 10 c-16 6 -42 20 -57 30
-16 11 -28 16 -28 11z"/>
<path d="M6640 1764 c-126 -19 -181 -29 -214 -41 -22 -7 -71 -18 -110 -24 -75
-11 -150 -47 -221 -104 -22 -18 -56 -40 -75 -50 -71 -37 -192 -141 -216 -187
-8 -15 -14 -38 -14 -52 0 -17 -16 -41 -48 -73 -29 -29 -52 -64 -60 -89 -17
-57 -16 -158 2 -173 7 -6 16 -31 19 -56 9 -60 31 -102 67 -124 l29 -17 -39
-65 c-56 -91 -72 -128 -65 -150 9 -27 48 -40 98 -33 55 9 90 27 141 74 32 29
51 39 86 42 25 3 53 8 63 12 15 7 16 5 7 -19 -15 -39 -13 -53 14 -80 22 -22
28 -23 122 -18 l99 6 12 -44 c6 -24 11 -45 10 -45 -1 -1 -26 -5 -56 -8 -30 -3
-83 -19 -118 -35 -52 -25 -67 -37 -79 -67 -37 -89 -7 -105 204 -107 136 -1
168 2 242 22 47 13 123 27 170 31 104 10 224 49 302 97 95 59 207 185 266 300
98 191 131 381 97 548 -26 127 -82 224 -197 343 -142 147 -242 192 -423 190
-49 0 -101 -2 -115 -4z m252 -28 c119 -26 194 -78 308 -213 100 -120 134 -185
155 -298 32 -168 -2 -353 -99 -540 -46 -90 -160 -217 -249 -278 -63 -43 -179
-85 -257 -93 -110 -10 -215 -27 -226 -36 -38 -29 -382 -31 -421 -2 -17 12 -17
15 2 51 30 56 125 103 209 103 54 0 66 -3 87 -26 26 -28 118 -83 146 -88 10
-2 27 0 38 5 16 6 13 8 -16 8 -45 1 -153 72 -192 127 -37 53 -43 134 -16 235
23 89 23 90 5 83 -17 -7 -91 39 -108 66 -18 28 -26 25 -20 -6 5 -25 3 -26 -23
-20 -15 4 -40 17 -56 28 -23 17 -27 26 -22 42 10 27 7 110 -4 131 -6 9 -7 -9
-5 -49 6 -87 -11 -134 -53 -152 -29 -12 -38 -12 -67 0 -33 14 -121 9 -186 -10
-57 -17 -102 51 -102 155 0 42 5 65 19 82 13 17 16 30 10 47 -12 31 -22 28
-15 -5 3 -16 3 -22 0 -15 -8 18 -24 14 -17 -5 5 -11 3 -14 -6 -8 -10 6 -11 3
-3 -11 7 -14 6 -25 -3 -38 -13 -17 -14 -17 -21 8 -18 72 19 168 86 228 23 21
38 42 35 48 -12 20 16 76 58 117 52 51 147 123 162 123 7 0 38 21 71 46 89 70
132 91 209 103 39 7 102 21 141 32 137 37 333 48 446 25z m-672 -934 c59 -5
65 -26 15 -51 -17 -8 -51 -28 -78 -43 -26 -15 -68 -34 -93 -43 -42 -14 -52
-14 -99 0 -29 8 -68 15 -86 15 -36 0 -79 33 -79 61 0 36 47 59 121 59 37 0 78
-5 91 -11 26 -11 85 8 108 36 12 14 15 14 31 -1 10 -9 42 -19 69 -22z m85 -32
c3 -5 17 -10 31 -10 13 0 24 -4 24 -9 0 -18 -31 -81 -40 -81 -14 0 -40 55 -40
85 0 25 14 34 25 15z m-30 -75 c10 -19 26 -37 36 -40 17 -6 20 -14 17 -48 l-3
-42 -90 -6 c-109 -8 -135 0 -135 39 0 41 34 80 94 107 28 13 54 24 58 24 4 1
14 -15 23 -34z m-496 -68 c-33 -22 -57 -42 -55 -45 3 -2 36 14 74 37 47 28 80
41 105 41 46 0 52 -11 26 -44 -55 -70 -219 -103 -219 -44 0 12 17 50 38 84
l37 63 27 -26 27 -26 -60 -40z"/>
<path d="M6003 1359 c-58 -22 -136 -100 -171 -169 -12 -24 -22 -36 -25 -28 -3
7 -6 0 -6 -15 -1 -25 1 -27 14 -13 8 8 15 19 15 25 0 28 152 192 166 179 1 -2
-22 -35 -53 -73 -84 -106 -128 -211 -104 -252 8 -15 10 -10 11 27 0 55 34 122
110 221 64 83 91 99 160 99 65 0 71 -16 32 -72 -17 -24 -52 -78 -79 -122 -49
-81 -106 -146 -158 -184 -16 -12 -25 -22 -18 -22 39 -1 150 120 216 236 15 27
39 67 52 89 28 46 32 80 9 89 -32 12 -120 4 -171 -15z"/>
<path d="M5770 1142 c0 -5 6 -17 14 -27 13 -18 14 -18 9 8 -5 24 -23 39 -23
19z"/>
<path d="M5751 1125 c0 -11 4 -27 9 -35 9 -13 10 -13 9 0 0 8 -4 24 -9 35 l-9
20 0 -20z"/>
<path d="M6670 1096 c31 -18 92 -24 97 -11 2 7 -12 11 -34 11 -21 -1 -49 3
-63 7 l-25 8 25 -15z"/>
<path d="M6617 1050 c15 -16 104 -33 116 -21 5 5 -12 11 -40 13 -26 3 -57 9
-68 13 -16 6 -18 5 -8 -5z"/>
<path d="M6590 1005 c18 -22 67 -38 85 -28 12 7 3 13 -40 25 -41 11 -53 12
-45 3z"/>
<path d="M6520 959 c0 -13 110 -33 121 -22 6 6 -12 13 -56 19 -36 6 -65 7 -65
3z"/>
<path d="M5880 922 c0 -5 11 -19 25 -32 20 -19 25 -20 25 -7 0 17 -26 47 -41
47 -5 0 -9 -4 -9 -8z"/>
<path d="M6575 910 c-5 -8 -25 -11 -58 -7 -45 4 -48 3 -32 -9 26 -19 94 -18
102 1 7 20 -2 31 -12 15z"/>
<path d="M5878 860 c9 -16 18 -25 20 -20 4 12 -17 50 -28 50 -5 0 -1 -13 8
-30z"/>
<path d="M6420 865 c14 -17 76 -38 93 -32 6 3 3 6 -8 6 -12 1 -38 10 -58 20
-24 12 -34 14 -27 6z"/>
<path d="M6340 843 c1 -26 45 -53 87 -52 l28 1 -30 10 c-16 6 -42 20 -57 30
-16 11 -28 16 -28 11z"/>
<path d="M11760 1764 c-132 -20 -185 -31 -244 -51 -38 -12 -76 -23 -84 -23 -8
0 -55 -24 -106 -54 -74 -44 -115 -79 -218 -184 -134 -139 -138 -141 -138 -57
0 39 -6 50 -44 90 -25 25 -51 44 -58 43 -24 -5 -67 -72 -68 -105 0 -32 0 -32
-27 -17 -16 7 -43 14 -62 14 -28 0 -32 -3 -26 -17 26 -64 38 -123 44 -232 6
-113 9 -126 29 -139 18 -12 22 -24 22 -67 0 -66 38 -127 112 -177 103 -70 128
-78 235 -78 110 0 136 10 158 63 12 29 16 31 57 28 23 -1 44 -4 46 -6 9 -8
-12 -56 -23 -52 -20 8 -88 -28 -122 -65 -45 -47 -52 -89 -20 -121 23 -24 28
-25 123 -20 l99 6 12 -44 c6 -24 11 -45 10 -45 -1 -1 -27 -5 -57 -8 -32 -3
-82 -19 -120 -38 -57 -29 -67 -38 -80 -76 -17 -51 -8 -73 36 -84 57 -13 247
-25 283 -17 20 5 86 20 146 33 61 14 139 27 175 29 83 7 207 48 282 94 95 59
207 185 266 300 98 191 131 381 97 548 -26 127 -82 224 -197 343 -142 147
-242 192 -423 190 -49 0 -101 -2 -115 -4z m252 -28 c119 -26 194 -78 308 -213
100 -120 134 -185 155 -298 32 -168 -2 -353 -99 -540 -46 -90 -160 -217 -249
-278 -63 -43 -179 -85 -257 -93 -110 -10 -215 -27 -226 -36 -38 -29 -382 -31
-421 -2 -17 12 -17 15 2 51 30 56 125 103 209 103 54 0 66 -3 87 -26 26 -28
118 -83 146 -88 10 -2 27 0 38 5 16 6 13 8 -16 8 -45 1 -153 72 -191 127 -37
52 -43 136 -17 236 23 88 23 89 5 82 -31 -12 -161 100 -150 130 3 7 -2 26 -11
42 -8 16 -15 37 -15 46 0 10 -6 17 -12 15 -7 -1 -17 13 -22 30 -6 18 -16 32
-22 30 -7 -1 -41 19 -76 44 -34 26 -73 50 -85 53 -13 4 -23 13 -23 20 0 20
112 137 177 187 80 59 132 109 149 142 22 41 3 32 -33 -18 -18 -24 -58 -60
-89 -81 -59 -39 -175 -153 -207 -204 -24 -39 -64 -42 -72 -5 -3 14 -7 37 -10
51 -4 19 1 33 19 53 14 14 45 50 71 79 93 109 217 207 333 266 153 77 440 116
604 82z m-1097 -272 c26 -34 34 -67 48 -204 1 -8 -2 -16 -8 -17 -11 -3 -12 6
-14 91 -1 52 -4 61 -35 92 -19 19 -37 40 -39 47 -3 7 -6 4 -6 -6 -1 -24 18
-59 41 -75 14 -11 18 -27 18 -82 0 -65 2 -71 33 -99 l32 -31 -25 0 c-21 0 -29
7 -39 38 -8 20 -34 62 -58 92 -41 50 -45 59 -40 97 5 47 30 93 51 93 8 0 26
-16 41 -36z m-119 -101 c43 -46 71 -108 75 -161 3 -35 -1 -45 -20 -58 -21 -15
-23 -23 -19 -70 3 -29 11 -61 19 -70 22 -27 85 -51 191 -73 53 -11 111 -26
130 -34 32 -14 108 -81 108 -95 0 -25 -42 -70 -70 -76 -59 -11 -75 -7 -93 24
-10 16 -22 30 -28 30 -12 0 -12 -17 1 -25 6 -3 10 -13 10 -22 0 -22 -58 -10
-129 27 -62 32 -154 120 -170 163 -16 42 -14 77 5 77 11 0 7 8 -14 28 -36 34
-38 42 -50 193 -6 71 -16 128 -26 147 l-17 32 32 0 c23 0 40 -9 65 -37z m118
-170 c6 -17 3 -23 -8 -23 -10 0 -16 9 -16 23 0 12 -3 33 -6 47 l-5 25 14 -25
c8 -14 18 -35 21 -47z m169 -44 c21 -5 61 -29 90 -53 61 -50 145 -169 146
-208 1 -17 9 -32 21 -38 21 -11 28 -40 9 -40 -15 0 -99 53 -99 62 0 14 -97 50
-195 73 -55 13 -121 32 -147 43 -41 18 -48 26 -58 62 -6 22 -9 49 -5 58 12 41
153 65 238 41z m342 -379 c3 -5 17 -10 31 -10 13 0 24 -4 24 -9 0 -18 -31 -81
-40 -81 -14 0 -40 55 -40 85 0 25 14 34 25 15z m-30 -75 c10 -19 26 -37 36
-40 17 -6 20 -14 17 -48 l-3 -42 -90 -6 c-49 -4 -100 -3 -112 2 -54 20 -9 113
72 150 55 25 62 24 80 -16z"/>
<path d="M11790 1096 c31 -18 92 -24 97 -11 2 7 -12 11 -34 11 -21 -1 -49 3
-63 7 l-25 8 25 -15z"/>
<path d="M11737 1050 c15 -16 104 -33 116 -21 5 5 -12 11 -40 13 -26 3 -57 9
-68 13 -16 6 -18 5 -8 -5z"/>
<path d="M11710 1005 c18 -22 67 -38 85 -28 12 7 3 13 -40 25 -41 11 -53 12
-45 3z"/>
<path d="M11640 959 c0 -13 110 -33 121 -22 6 6 -12 13 -56 19 -36 6 -65 7
-65 3z"/>
<path d="M11695 910 c-5 -8 -25 -11 -58 -7 -45 4 -48 3 -32 -9 26 -19 94 -18
102 1 7 20 -2 31 -12 15z"/>
<path d="M11540 865 c14 -17 76 -38 93 -32 6 3 3 6 -8 6 -12 1 -38 10 -58 20
-24 12 -34 14 -27 6z"/>
<path d="M11460 843 c1 -26 45 -53 87 -52 l28 1 -30 10 c-16 6 -42 20 -57 30
-16 11 -28 16 -28 11z"/>
</g>
</svg>
