<?xml version="1.0" standalone="no"?>
<!DOCTYPE svg PUBLIC "-//W3C//DTD SVG 20010904//EN"
 "http://www.w3.org/TR/2001/REC-SVG-20010904/DTD/svg10.dtd">
<svg version="1.0" xmlns="http://www.w3.org/2000/svg"
 width="512.000000pt" height="512.000000pt" viewBox="0 0 512.000000 512.000000"
 preserveAspectRatio="xMidYMid meet">

<g transform="translate(0.000000,512.000000) scale(0.100000,-0.100000)"
fill="#725d4e" stroke="none">
<path d="M2480 5020 c-8 -5 -46 -17 -84 -26 -37 -10 -93 -32 -123 -51 -31 -18
-59 -33 -64 -33 -21 0 -312 -235 -394 -319 -22 -23 -44 -41 -48 -41 -5 0 -65
-51 -135 -114 -196 -176 -486 -477 -609 -632 -26 -34 -137 -165 -245 -292
-109 -127 -198 -235 -198 -240 0 -5 -16 -22 -35 -36 -19 -15 -35 -32 -35 -38
0 -6 -31 -47 -68 -92 -67 -80 -177 -225 -197 -258 -6 -9 -44 -65 -85 -123 -41
-58 -79 -114 -85 -123 -5 -9 -20 -31 -32 -49 -44 -61 -38 -66 112 -103 50 -12
99 -26 110 -30 30 -14 129 -29 230 -35 50 -3 117 -8 151 -11 l60 -5 3 -317 c1
-174 6 -321 11 -327 4 -5 10 -107 14 -225 8 -283 47 -642 76 -705 5 -11 16
-52 24 -92 7 -39 17 -76 20 -82 4 -6 25 -11 47 -11 21 0 47 -4 57 -9 15 -9
359 -38 660 -58 88 -5 109 -10 140 -31 21 -14 55 -36 77 -49 23 -14 31 -23 20
-21 -18 3 -20 -3 -20 -66 1 -59 4 -71 24 -87 13 -11 31 -34 41 -52 11 -21 38
-44 81 -67 61 -34 68 -35 164 -35 84 1 108 5 148 24 27 13 52 31 55 40 4 9 16
31 27 49 l19 32 141 0 c188 0 278 18 320 66 29 32 33 34 78 28 40 -6 48 -11
54 -33 8 -35 20 -49 68 -79 37 -24 50 -26 194 -30 136 -4 159 -2 189 14 l34
18 -4 71 c-3 51 -11 84 -31 124 -37 73 -26 86 81 94 168 11 457 41 462 47 3 4
77 14 164 21 l159 14 13 50 c8 28 22 86 31 130 10 44 20 82 24 85 10 8 28 161
39 340 8 129 29 936 30 1133 l0 37 139 0 c77 0 142 4 145 9 3 4 38 11 78 14
98 7 281 38 292 48 11 10 -18 79 -34 79 -5 0 -10 5 -10 10 0 6 -42 66 -93 133
-50 67 -101 135 -111 152 -11 16 -73 98 -138 182 -65 84 -118 155 -118 158 0
7 -183 236 -258 323 -29 34 -51 62 -47 62 4 0 -7 12 -24 26 -17 14 -31 32 -31
39 0 7 -13 25 -30 38 -16 14 -30 29 -30 33 0 21 -689 745 -851 893 -138 127
-252 221 -268 221 -6 0 -11 4 -11 9 0 6 -44 36 -97 67 -101 60 -207 103 -255
104 -15 0 -30 5 -33 10 -8 12 -154 12 -175 0z m225 -64 c33 -8 93 -33 134 -55
41 -23 78 -41 82 -41 5 0 9 -4 9 -10 0 -5 5 -10 11 -10 26 0 163 -110 348
-280 217 -198 961 -995 961 -1029 0 -6 11 -18 25 -27 14 -9 25 -20 25 -25 0
-5 63 -87 140 -182 77 -96 140 -177 140 -181 0 -5 33 -49 73 -100 97 -120 197
-253 197 -261 0 -3 39 -56 86 -117 55 -72 81 -114 72 -116 -7 -2 -22 -7 -33
-12 -45 -19 -171 -32 -360 -37 l-199 -6 -53 59 c-29 32 -53 64 -53 70 0 7 -6
14 -13 17 -7 3 -26 24 -42 48 -16 24 -95 122 -175 218 -80 96 -159 193 -177
215 -176 226 -982 1046 -1028 1046 -5 0 -16 9 -23 20 -7 11 -16 20 -21 20 -5
0 -42 20 -82 45 -93 57 -165 78 -249 73 -57 -4 -138 -31 -175 -60 -5 -4 -52
-36 -104 -70 -52 -35 -128 -94 -170 -133 -42 -39 -91 -81 -108 -94 -18 -12
-33 -28 -33 -35 0 -7 -16 -28 -36 -47 -61 -58 -419 -469 -426 -490 -4 -10 -12
-19 -17 -19 -6 0 -25 -22 -43 -48 -18 -26 -87 -115 -153 -196 -66 -81 -122
-154 -125 -162 -3 -8 -20 -31 -38 -52 -61 -70 -242 -310 -242 -321 0 -6 -9
-15 -20 -21 -11 -6 -20 -16 -20 -21 0 -6 -14 -30 -32 -53 -17 -22 -33 -42 -34
-44 -4 -6 -334 18 -387 29 -91 18 -181 40 -199 50 -10 5 -25 9 -33 9 -8 0 -15
3 -15 6 0 3 37 59 83 123 45 64 87 126 94 138 6 11 58 80 115 153 57 72 113
147 125 165 12 19 30 38 39 43 9 5 15 12 15 16 -1 3 85 108 191 232 106 124
199 236 205 249 7 12 24 30 38 39 14 9 25 21 25 27 0 15 216 255 385 428 77
79 223 217 325 308 252 223 263 233 268 233 2 0 30 22 61 48 81 70 165 130
219 157 87 43 141 65 179 74 59 14 182 12 248 -3z m-131 -715 c3 -4 18 -11 34
-14 39 -8 162 -67 162 -79 0 -4 10 -12 23 -17 46 -18 251 -207 504 -465 270
-275 523 -547 523 -562 0 -5 16 -22 35 -37 19 -15 35 -34 35 -42 0 -7 14 -25
30 -38 17 -14 30 -28 30 -31 0 -3 64 -84 143 -181 78 -96 165 -205 192 -241
28 -37 63 -79 78 -95 l28 -28 -7 -406 c-4 -223 -11 -405 -16 -405 -4 0 -8 -54
-8 -119 0 -273 -40 -627 -80 -716 -11 -24 -20 -53 -20 -64 0 -12 -6 -21 -13
-21 -7 0 -123 -11 -258 -24 -134 -14 -281 -28 -326 -32 l-83 -7 0 39 c0 22 9
55 20 74 51 87 94 192 110 270 10 47 26 112 35 145 13 46 18 113 20 280 4 223
-4 304 -39 441 -9 34 -16 73 -16 87 0 14 -4 29 -10 32 -5 3 -10 15 -10 27 0
11 -6 32 -14 46 -7 15 -20 41 -27 57 -8 17 -29 55 -47 85 l-33 55 3 147 c1 89
-1 151 -7 157 -12 12 -191 107 -275 147 -30 15 -91 44 -135 65 -44 21 -91 41
-105 45 -14 4 -49 18 -78 31 -60 27 -263 83 -304 83 -15 0 -30 5 -33 10 -8 12
-202 14 -209 1 -3 -4 -27 -11 -53 -15 -68 -9 -217 -54 -274 -82 -26 -13 -51
-24 -57 -24 -13 0 -252 -119 -272 -136 -8 -6 -40 -24 -70 -39 -42 -22 -128
-73 -168 -100 -1 -1 3 -149 9 -328 l11 -326 -37 -118 c-20 -65 -45 -145 -55
-178 -22 -70 -47 -212 -54 -305 -5 -71 7 -204 29 -306 13 -63 108 -275 126
-282 13 -5 39 -58 39 -80 0 -22 20 -22 -409 13 -156 13 -288 28 -293 33 -11
11 -42 164 -63 317 -10 66 -21 129 -26 140 -22 50 -58 1230 -39 1249 6 6 10
21 10 33 0 13 11 35 25 49 14 14 25 28 25 31 0 3 47 66 105 140 58 73 105 138
105 143 0 5 9 14 21 20 11 7 18 14 15 17 -3 4 3 12 14 20 11 8 20 19 20 24 0
9 254 337 304 392 14 16 26 31 26 34 0 3 67 84 150 179 83 96 150 176 150 179
0 3 18 21 40 41 22 20 40 40 40 46 0 5 29 38 65 73 36 36 65 68 65 72 0 13 64
73 77 73 7 0 22 14 35 30 36 50 257 207 338 240 30 13 59 27 65 32 12 11 102
10 109 -1z m118 -1366 c47 -8 96 -20 109 -27 21 -11 5 -13 -116 -15 -205 -2
-305 -21 -420 -79 -97 -49 -214 -138 -300 -228 -73 -77 -146 -164 -174 -205
-14 -20 -30 -40 -36 -46 -15 -13 -97 -148 -121 -197 -9 -20 -21 -35 -26 -32
-4 3 -8 81 -8 175 0 111 -4 169 -10 169 -7 0 -10 23 -8 62 l3 61 60 38 c123
78 430 230 530 263 44 15 89 31 100 36 78 38 278 50 417 25z m198 -95 c44 -7
103 -29 180 -67 104 -50 124 -65 205 -147 50 -51 97 -105 105 -121 8 -17 29
-48 47 -69 18 -22 33 -45 33 -52 0 -7 4 -14 8 -16 25 -10 125 -200 152 -287
28 -91 47 -176 40 -176 -2 0 1 -9 7 -20 26 -49 46 -450 28 -555 -3 -19 -9 -55
-12 -80 -3 -25 -9 -50 -14 -55 -4 -6 -12 -38 -18 -70 -26 -153 -96 -296 -200
-410 -42 -46 -130 -115 -148 -115 -4 0 -18 -11 -32 -23 -38 -35 -212 -89 -291
-91 l-65 -1 -5 81 c-3 45 -11 88 -17 95 -6 8 -12 19 -13 24 -4 18 -13 40 -19
45 -3 3 -11 14 -17 25 -6 11 -20 25 -31 30 -10 6 -30 22 -44 36 -13 14 -44 40
-68 57 -52 38 -107 42 -225 16 -66 -15 -85 -24 -153 -79 -83 -67 -142 -138
-161 -194 -7 -19 -12 -61 -12 -94 l0 -60 -49 6 c-27 3 -58 10 -68 16 -10 5
-43 17 -73 27 -99 29 -239 119 -307 197 -39 44 -97 140 -119 197 -10 25 -21
47 -24 50 -8 6 -15 34 -35 145 -25 140 -4 414 40 510 12 27 21 64 29 117 1 10
5 21 9 24 4 4 7 13 7 20 0 7 5 25 12 41 13 32 11 25 27 83 7 25 19 52 26 60 7
8 16 26 20 40 14 49 74 166 119 233 25 38 46 72 46 76 0 4 18 27 40 51 22 25
40 48 40 52 0 11 177 188 245 245 107 91 276 169 395 183 97 11 286 11 360 0z
m515 -194 c30 -18 68 -39 85 -46 l30 -12 0 -90 c0 -102 -9 -109 -50 -36 -31
57 -86 123 -170 205 l-65 63 58 -26 c31 -14 82 -40 112 -58z m-712 -1810 c18
-18 47 -43 66 -56 48 -33 91 -128 91 -203 0 -60 -21 -127 -40 -127 -6 0 -8 -4
-5 -10 3 -5 1 -10 -5 -10 -6 0 -30 -9 -53 -21 -52 -25 -132 -34 -312 -33 -195
1 -203 2 -216 41 -16 50 -9 168 14 213 23 48 107 135 173 180 50 35 132 57
212 59 36 1 48 -4 75 -33z m837 -156 c0 -5 -5 -10 -11 -10 -5 0 -7 5 -4 10 3
6 8 10 11 10 2 0 4 -4 4 -10z m-135 -183 c4 -15 11 -30 16 -33 5 -3 9 -27 9
-54 0 -42 -3 -50 -22 -56 -24 -8 -312 -7 -340 2 -12 4 -38 50 -38 69 0 4 51
16 107 25 50 9 177 62 218 93 17 13 21 13 32 -2 6 -10 15 -30 18 -44z m-1342
-57 c88 -21 108 -29 116 -47 12 -26 57 -49 114 -58 l37 -6 -15 -29 c-8 -16
-23 -31 -32 -33 -122 -33 -163 -38 -220 -27 -50 10 -64 19 -106 63 -50 55 -53
62 -61 143 l-5 51 33 -16 c18 -10 80 -28 139 -41z"/>
<path d="M2728 3760 l-34 -70 -34 25 c-51 38 -74 35 -160 -22 -53 -35 -220
-246 -250 -316 -5 -12 -21 -40 -35 -62 -55 -89 -59 -99 -59 -173 -1 -70 0 -75
29 -98 30 -24 69 -32 79 -15 4 5 30 12 59 16 52 7 125 40 183 82 17 13 35 23
41 23 6 0 51 27 101 60 51 33 94 60 97 60 13 0 83 80 99 115 19 39 19 40 -3
103 -12 36 -20 67 -17 70 3 3 6 0 6 -8 0 -8 4 -9 13 -3 6 6 43 13 81 16 38 4
74 11 79 16 12 12 -16 27 -66 36 -44 9 -54 20 -35 43 25 29 69 134 64 149 -5
11 -10 10 -28 -6 -12 -12 -27 -21 -34 -21 -7 0 -33 -16 -58 -35 -51 -39 -54
-37 -58 34 -2 24 -8 46 -14 48 -6 2 -27 -28 -46 -67z m58 -101 c12 -10 19 -8
37 8 51 45 61 48 34 12 -35 -46 -34 -57 4 -73 l31 -13 -32 -7 c-18 -3 -42 -6
-55 -6 -46 0 -74 67 -53 128 l13 36 3 -36 c2 -20 10 -42 18 -49z m-78 -24 c46
-52 102 -146 102 -172 0 -6 -7 -24 -15 -39 -8 -16 -15 -37 -15 -46 0 -19 -41
-54 -87 -73 -18 -8 -33 -19 -33 -24 0 -6 -6 -11 -13 -11 -7 0 -40 -17 -73 -38
-61 -40 -73 -46 -184 -100 -60 -29 -145 -52 -190 -52 -17 0 -20 7 -20 40 0 22
9 56 19 77 11 21 29 60 41 87 17 40 23 46 34 36 8 -6 18 -24 21 -40 8 -35 35
-62 35 -35 0 9 -7 44 -15 76 l-16 59 32 46 c17 25 36 43 42 42 7 -2 25 -29 40
-59 l28 -54 -7 40 c-3 22 -8 51 -9 65 -1 14 -6 38 -10 53 -9 35 18 71 44 57 9
-5 23 -11 31 -13 8 -2 23 -27 33 -55 10 -28 25 -56 33 -63 8 -6 14 -10 14 -8
0 16 -59 171 -70 184 -14 17 -13 18 34 53 20 16 43 22 77 22 45 0 50 -3 97
-55z"/>
</g>
</svg>
