<?xml version="1.0" standalone="no"?>
<!DOCTYPE svg PUBLIC "-//W3C//DTD SVG 20010904//EN"
 "http://www.w3.org/TR/2001/REC-SVG-20010904/DTD/svg10.dtd">
<svg version="1.0" xmlns="http://www.w3.org/2000/svg"
 width="512.000000pt" height="512.000000pt" viewBox="0 0 512.000000 512.000000"
 preserveAspectRatio="xMidYMid meet">

<g transform="translate(0.000000,512.000000) scale(0.100000,-0.100000)"
fill="#725d4e" stroke="none">
<path d="M2809 4915 c-3 -2 -114 -7 -249 -10 -135 -4 -299 -9 -365 -11 -66 -2
-140 -4 -165 -4 -59 -1 -806 -47 -890 -56 -36 -3 -87 -6 -115 -5 -27 0 -59 -3
-70 -8 -17 -8 -356 -34 -422 -33 -13 0 -23 -3 -23 -7 0 -4 -35 -8 -77 -10 -43
-1 -81 -5 -86 -8 -4 -2 -43 -5 -86 -5 -65 0 -83 -3 -100 -19 -12 -11 -21 -18
-21 -15 0 3 -12 -2 -27 -9 -25 -13 -27 -19 -32 -97 -4 -70 -4 -348 -1 -625 1
-40 5 -73 8 -73 4 0 8 -35 10 -78 1 -42 7 -126 12 -187 6 -60 11 -132 11 -159
0 -27 3 -54 6 -59 3 -5 7 -30 9 -56 19 -246 23 -300 28 -325 9 -52 16 -109 21
-181 2 -38 8 -95 14 -125 5 -30 13 -81 16 -113 3 -33 10 -70 16 -84 5 -13 9
-44 9 -68 0 -24 4 -46 9 -49 5 -3 12 -22 16 -42 3 -20 11 -44 16 -53 5 -9 14
-27 19 -41 9 -21 23 -47 69 -119 7 -12 68 -14 357 -13 192 0 439 4 549 8 110
3 230 7 268 8 l67 1 -7 -30 c-9 -42 -5 -114 17 -255 5 -36 10 -88 10 -117 0
-48 -2 -52 -27 -57 -16 -3 -45 -4 -65 -2 -21 3 -72 -2 -115 -9 -43 -8 -83 -14
-90 -15 -15 0 -133 -109 -133 -122 0 -5 -11 -24 -24 -41 -18 -25 -24 -45 -24
-88 0 -49 3 -60 27 -83 59 -56 150 -67 431 -50 243 14 474 32 530 40 19 3 76
8 125 11 50 3 94 9 99 14 6 5 34 9 63 9 29 0 53 4 53 8 0 5 32 9 70 10 68 2
70 1 70 -22 0 -20 -6 -24 -46 -30 -26 -3 -64 -6 -86 -6 -21 0 -46 -4 -56 -9
-9 -5 -91 -17 -182 -26 -91 -9 -185 -19 -210 -22 -25 -2 -70 -8 -100 -14 -93
-16 -192 -29 -260 -34 -36 -3 -114 -12 -175 -20 -60 -8 -146 -17 -190 -21 -44
-3 -84 -10 -90 -14 -5 -4 -39 -10 -75 -14 -125 -13 -126 -14 -144 -60 -25 -66
-19 -113 30 -209 13 -26 24 -55 24 -65 0 -9 7 -30 15 -46 8 -15 15 -33 15 -40
0 -6 11 -32 25 -58 14 -26 25 -52 25 -59 0 -6 14 -40 31 -75 l32 -64 71 0 c66
0 314 15 651 40 77 6 142 15 143 21 3 6 9 6 18 -2 9 -8 18 -8 27 -2 6 6 48 13
92 17 44 4 96 8 115 10 122 13 121 13 114 -37 -6 -41 -4 -45 32 -75 24 -20 50
-32 69 -32 16 0 42 -7 57 -14 15 -8 87 -22 158 -31 91 -11 147 -23 185 -40 29
-14 61 -25 70 -25 36 0 173 -33 213 -52 24 -10 69 -23 99 -28 62 -10 85 -17
128 -35 62 -27 102 -36 181 -42 101 -7 262 19 314 52 31 19 50 22 160 24 128
2 193 11 245 36 17 7 50 23 75 34 25 11 63 37 85 58 22 21 52 47 65 58 37 30
96 106 105 135 4 14 16 41 27 60 11 19 31 69 45 110 13 41 30 89 38 105 45 99
42 432 -6 540 -5 11 -20 64 -34 119 -15 54 -36 115 -48 135 -13 20 -28 49 -35
64 -16 36 -172 228 -212 259 -51 40 -123 93 -129 94 -3 0 -23 8 -45 17 -21 9
-40 17 -43 17 -2 0 -19 11 -36 24 -32 24 -114 56 -142 56 -9 0 -23 4 -33 9
-59 31 -338 41 -432 16 -30 -8 -56 -13 -57 -11 -2 2 27 35 64 73 37 38 75 78
84 89 35 45 114 214 130 277 6 26 16 47 22 47 17 0 67 52 67 69 0 9 9 31 21
50 14 24 17 37 10 44 -6 6 -11 25 -11 42 0 50 -24 75 -74 75 -54 0 -109 -35
-194 -124 -61 -63 -73 -65 -52 -10 18 46 23 85 24 191 1 102 1 102 -31 135
-37 38 -51 90 -57 218 -8 151 -13 203 -30 340 -20 152 -31 258 -41 375 -3 44
-10 94 -15 110 -5 17 -12 62 -16 100 -7 71 -9 90 -19 137 -4 14 -8 46 -11 70
-4 49 -21 190 -30 261 -4 31 -2 53 5 60 6 6 11 17 11 24 0 15 -61 54 -110 69
-32 11 -462 19 -471 9z m470 -85 c12 -6 19 -16 15 -21 -3 -6 -1 -38 5 -72 13
-73 17 -104 31 -217 6 -47 13 -92 15 -100 2 -8 5 -35 6 -60 1 -25 5 -49 8 -55
8 -14 10 -32 13 -98 1 -32 6 -61 10 -63 4 -3 8 -36 8 -73 0 -37 4 -71 9 -76 5
-6 12 -50 15 -100 11 -143 12 -159 19 -175 3 -8 8 -53 11 -100 4 -47 8 -103
11 -125 11 -109 24 -302 20 -315 -3 -9 -27 -20 -57 -27 -33 -8 -61 -22 -75
-38 -12 -14 -25 -25 -30 -25 -12 0 -73 -63 -73 -76 0 -6 -6 -14 -13 -17 -8 -3
-24 -34 -36 -69 -13 -34 -27 -72 -32 -83 -4 -11 -19 -65 -33 -120 -14 -55 -34
-118 -46 -140 -11 -21 -20 -45 -20 -52 0 -7 -12 -13 -27 -13 -41 0 -114 -53
-162 -120 -24 -33 -49 -61 -55 -62 -13 -1 -29 -5 -36 -8 -29 -11 -817 -60
-995 -61 -77 -1 -143 -3 -146 -5 -16 -9 -326 -16 -757 -18 l-463 -1 -19 25
c-11 14 -25 41 -31 60 -7 19 -15 37 -19 40 -7 6 -39 121 -44 160 -2 14 -6 32
-10 40 -3 8 -8 40 -10 70 -6 66 -21 196 -36 305 -6 44 -11 98 -12 120 0 22 -3
54 -8 70 -5 17 -12 75 -16 130 -10 138 -13 173 -19 225 -8 67 -24 272 -29 375
-2 50 -7 126 -11 170 -9 115 -10 455 -1 556 l8 87 36 1 c20 0 53 3 72 6 19 3
105 10 190 15 164 11 235 18 235 21 0 5 408 38 530 42 44 2 87 6 95 10 20 8
358 30 500 32 63 1 117 3 120 3 12 4 393 18 709 26 95 3 175 6 176 8 10 9 436
-2 454 -12z m300 -1715 c22 -21 27 -154 8 -196 -9 -19 -19 -49 -22 -68 -4 -19
-20 -55 -35 -82 -16 -26 -25 -50 -22 -54 4 -4 0 -5 -8 -4 -9 2 -69 -50 -142
-124 -120 -121 -129 -127 -150 -115 -13 7 -27 11 -32 10 -5 -2 -6 4 -2 13 3 8
15 68 27 133 12 64 25 121 30 127 5 5 9 22 9 38 0 83 44 163 123 226 31 25 54
48 51 53 -3 4 2 5 10 2 8 -3 22 -2 31 3 15 9 15 11 -1 24 -16 12 -17 12 -11
-3 4 -11 2 -15 -7 -12 -17 7 -82 -22 -98 -44 -7 -9 -26 -25 -43 -35 -17 -10
-1 9 35 43 39 36 79 64 100 70 80 20 123 19 149 -5z m-336 -195 c-5 -20 -21
-36 -27 -29 -2 2 0 14 5 27 10 27 29 29 22 2z m632 0 c4 -6 -5 -10 -21 -10
-42 0 -53 -25 -54 -117 0 -45 -3 -83 -7 -85 -5 -1 -16 -34 -26 -73 -10 -38
-29 -86 -42 -106 -14 -19 -25 -42 -25 -50 0 -28 -60 -109 -147 -201 -52 -53
-83 -93 -75 -95 16 -6 16 -23 -1 -23 -47 0 -337 -172 -337 -200 0 -26 29 -16
105 35 46 31 99 61 117 67 18 6 44 17 58 25 14 7 31 13 38 13 6 0 12 4 12 9 0
19 173 51 279 51 81 0 297 -32 328 -49 10 -5 36 -17 58 -27 22 -9 52 -25 66
-35 14 -10 49 -27 77 -37 60 -23 100 -53 186 -139 76 -76 118 -128 145 -178
11 -21 24 -41 28 -44 15 -11 63 -116 63 -138 0 -12 4 -24 9 -27 5 -4 14 -39
21 -79 6 -39 16 -92 22 -116 20 -79 10 -291 -19 -411 -9 -36 -18 -67 -22 -70
-3 -3 -15 -30 -25 -60 -29 -82 -105 -230 -121 -237 -8 -3 -15 -9 -15 -14 0
-13 -62 -68 -76 -69 -7 0 -14 -6 -17 -14 -10 -25 -136 -86 -210 -101 -40 -8
-142 -17 -227 -19 -151 -4 -192 -15 -139 -34 18 -7 8 -11 -51 -20 -154 -23
-235 -26 -261 -9 -13 8 -51 21 -83 27 -33 7 -67 16 -75 21 -9 4 -65 20 -126
34 -60 14 -119 30 -130 34 -11 5 -51 14 -90 21 -76 13 -168 36 -200 50 -11 5
-42 12 -70 15 -27 4 -84 15 -125 26 -41 10 -87 19 -101 19 -14 0 -40 7 -57 16
-28 13 -32 21 -32 54 0 32 8 47 52 95 58 63 119 100 153 91 15 -4 25 -1 29 9
3 8 17 15 31 15 14 0 25 5 25 10 0 6 20 10 43 10 45 0 96 -20 117 -45 7 -8 18
-15 26 -15 7 0 17 -6 21 -13 9 -15 71 -42 79 -35 10 11 -9 36 -30 42 -34 8
-134 109 -142 142 -4 16 -15 40 -26 53 -10 13 -18 29 -18 37 0 7 -11 25 -24
41 -13 15 -36 60 -51 98 -16 39 -31 72 -34 75 -8 7 -32 71 -35 95 -2 11 -8 30
-14 42 -7 12 -12 33 -12 47 0 14 -5 26 -11 26 -6 0 -7 5 -2 13 4 6 8 40 10 74
3 84 21 210 33 233 5 10 10 27 10 38 0 10 12 37 28 58 15 21 34 52 41 67 8 15
30 37 49 49 44 27 28 44 -21 23 -22 -9 -37 -22 -37 -32 0 -14 -4 -13 -24 6
-28 27 -56 132 -50 193 6 57 23 83 111 174 43 44 87 98 98 120 12 21 32 44 45
51 14 7 29 18 35 26 5 8 21 17 34 22 20 6 22 4 16 -14 -3 -11 -3 -26 0 -31 10
-16 35 8 35 31 0 11 5 19 11 19 5 0 7 5 4 10 -3 6 -2 10 3 10 5 0 22 39 37 86
16 47 33 87 37 90 4 3 8 17 8 32 1 15 7 50 15 77 11 41 14 45 14 20 1 -44 -29
-208 -40 -220 -5 -5 -9 -17 -9 -28 0 -10 -13 -50 -30 -89 -16 -38 -30 -71 -30
-73 0 -1 16 -15 36 -30 33 -25 37 -26 53 -11 10 9 25 14 34 10 11 -4 21 5 36
33 10 21 34 53 53 71 73 71 153 141 157 136 2 -2 -8 -15 -22 -28 -15 -14 -27
-30 -27 -36 0 -17 -58 -99 -108 -151 -29 -31 -40 -49 -32 -54 6 -4 17 -4 25
-1 7 2 15 0 17 -6 5 -13 48 7 48 22 0 6 5 10 12 10 19 0 88 52 82 61 -3 5 -16
9 -29 9 -23 0 -23 1 -9 30 9 17 20 30 25 30 5 0 9 5 9 11 0 10 77 108 100 129
3 3 33 39 67 80 74 91 156 169 203 192 41 20 47 21 55 8z m12 -80 c-3 -22 -16
-56 -29 -77 l-23 -38 -3 57 c-3 66 10 98 40 98 18 0 20 -4 15 -40z m-1177
-603 c0 -7 -8 -24 -17 -37 -15 -21 -18 -45 -17 -135 2 -118 17 -175 53 -195
18 -9 17 -13 -21 -51 -40 -40 -43 -41 -74 -30 -64 23 -498 0 -555 -29 -14 -7
-16 -1 -16 43 0 29 -2 121 -3 205 -2 138 -4 154 -21 163 -13 7 -26 6 -40 -2
-20 -10 -21 -16 -15 -109 4 -53 7 -144 7 -201 0 -93 3 -107 22 -129 21 -24 27
-25 122 -24 55 1 138 7 185 13 47 5 126 8 175 6 50 -2 99 -4 110 -5 44 -1 48
-12 36 -96 -17 -119 -18 -121 -51 -132 -16 -6 -89 -18 -162 -27 -73 -9 -160
-20 -194 -25 -33 -6 -88 -10 -122 -10 -33 0 -64 -5 -67 -11 -4 -6 -12 -8 -19
-6 -6 2 -40 0 -76 -4 -170 -22 -609 -33 -664 -17 -77 22 -83 41 -37 122 41 71
77 101 141 119 60 17 228 26 247 14 7 -4 25 5 43 22 27 24 31 33 26 62 -3 19
-9 79 -12 134 -4 55 -10 105 -15 110 -4 6 -6 41 -3 77 3 40 1 69 -6 73 -5 3
-10 15 -10 26 0 10 -4 19 -10 19 -5 0 -10 5 -10 10 0 6 28 10 63 10 34 0 206
9 382 20 176 11 381 23 455 26 74 4 137 8 139 10 10 9 31 3 31 -9z m-76 -966
c-10 -41 -31 -51 -111 -51 -83 0 -93 -9 -93 -79 0 -33 7 -49 36 -81 20 -22 52
-47 70 -56 27 -13 34 -22 34 -45 l0 -29 61 7 c61 6 61 6 54 -18 -4 -13 -9 -26
-11 -28 -3 -3 -195 -26 -329 -38 -38 -3 -72 -9 -75 -13 -3 -3 -95 -14 -205
-24 -267 -22 -285 -25 -285 -43 0 -9 5 -33 12 -55 l12 -40 90 7 c50 4 93 10
96 14 3 4 122 17 265 29 143 13 278 25 300 28 l40 6 -41 -30 c-23 -17 -48 -39
-55 -50 -17 -23 -44 -29 -169 -38 -52 -3 -99 -10 -105 -14 -5 -4 -73 -13 -150
-19 -212 -17 -593 -43 -652 -44 -29 0 -53 -4 -53 -9 0 -4 -29 -8 -65 -8 -76 0
-74 -2 -101 128 -9 43 -20 82 -24 87 -5 6 -21 65 -35 130 -15 66 -31 129 -36
140 -5 11 -13 32 -19 48 -9 26 -8 27 25 27 18 0 36 4 39 9 3 4 31 11 63 14
186 17 451 50 468 57 11 4 70 13 130 20 61 6 126 13 145 15 19 3 104 11 189
20 85 9 159 19 165 23 14 8 13 8 116 16 125 10 172 15 177 20 3 3 11 2 19 -1
9 -3 12 -14 8 -32z m49 -89 c7 -17 11 -59 9 -100 l-4 -72 -31 0 c-90 0 -177
66 -177 133 l0 33 68 -4 c57 -3 71 -1 92 17 31 26 29 26 43 -7z m114 -247 l61
-125 -36 0 c-21 0 -54 -3 -74 -6 l-38 -7 5 44 c3 24 5 83 6 132 0 48 4 87 7
87 4 0 35 -56 69 -125z"/>
<path d="M2077 4413 c-2 -2 -84 -4 -183 -5 -98 0 -182 -3 -185 -4 -4 -2 -74
-6 -155 -10 -82 -3 -198 -8 -259 -11 -60 -3 -148 -7 -195 -9 -47 -1 -110 -5
-140 -8 -72 -7 -285 -17 -332 -16 -30 1 -40 -5 -59 -31 -21 -30 -23 -44 -23
-152 -1 -65 2 -121 5 -123 4 -2 5 -23 2 -46 -5 -53 23 -462 42 -618 8 -63 19
-162 25 -220 29 -309 64 -487 104 -525 32 -30 213 -62 256 -46 34 13 322 30
505 29 423 -1 1135 22 1244 40 29 5 61 8 70 5 9 -2 30 3 46 11 15 8 32 13 37
10 4 -3 25 0 45 5 21 6 67 12 102 15 71 5 85 14 88 54 7 90 5 756 -2 847 -5
61 -8 121 -7 133 2 13 -1 29 -6 35 -5 7 -12 44 -16 82 -3 39 -10 95 -16 125
-9 52 -18 114 -25 170 -1 14 -5 32 -8 40 -3 8 -8 35 -11 60 -12 124 -26 138
-136 145 -47 3 -101 8 -120 11 -40 5 -688 12 -693 7z m303 -73 c237 -2 358 -5
484 -14 78 -6 88 -14 93 -80 2 -21 8 -46 13 -56 21 -39 42 -177 37 -243 -2
-37 -1 -69 3 -72 4 -2 11 -42 15 -87 4 -46 10 -101 12 -123 2 -22 10 -80 17
-130 11 -67 11 -101 4 -133 -7 -27 -8 -73 -3 -120 11 -109 13 -213 3 -241 -5
-13 -10 -76 -11 -140 l-2 -115 -35 -8 c-19 -5 -44 -13 -55 -17 -49 -22 -199
-46 -310 -50 -22 0 -103 -6 -180 -12 -77 -7 -160 -12 -185 -13 -25 0 -50 -4
-55 -8 -25 -16 -348 -10 -376 7 -5 4 -18 3 -27 -1 -9 -4 -116 -9 -237 -11
-121 -2 -249 -6 -285 -8 -36 -2 -160 -6 -277 -10 l-212 -6 -28 31 c-30 34 -37
59 -53 185 -13 105 -33 217 -42 230 -3 6 -9 62 -13 125 -5 63 -14 130 -22 148
-9 23 -16 87 -18 191 -3 86 -9 188 -15 226 -6 39 -10 106 -9 150 1 44 -3 117
-10 163 -9 61 -9 87 -1 97 6 7 12 27 13 44 2 30 3 31 52 32 28 1 95 5 150 9
55 5 165 11 244 14 79 4 147 9 151 11 4 3 70 8 146 11 77 3 267 13 424 23 157
9 303 13 325 10 22 -4 146 -8 275 -9z"/>
<path d="M3402 2353 c-21 -11 -31 -22 -27 -31 4 -12 3 -12 -9 -3 -9 8 -16 8
-20 2 -17 -27 43 -22 98 8 58 32 19 54 -42 24z"/>
<path d="M2243 1173 c-48 -4 -53 -6 -53 -27 0 -13 5 -38 11 -56 l12 -33 66 7
c36 3 76 6 89 6 28 0 30 34 5 79 -19 33 -13 32 -130 24z"/>
<path d="M1938 1141 c-27 -4 -53 -12 -59 -18 -13 -13 -4 -51 19 -80 16 -20 23
-21 97 -15 l80 7 -1 30 c-1 17 -7 42 -13 58 -11 29 -25 31 -123 18z"/>
<path d="M1617 1103 l-58 -4 7 -32 c12 -60 20 -67 77 -67 29 0 69 3 90 7 37 6
39 7 33 37 -4 17 -11 33 -16 34 -6 2 -10 10 -10 18 0 10 -10 13 -32 12 -18 -1
-59 -3 -91 -5z"/>
<path d="M1291 1073 l-34 -4 7 -46 c3 -24 9 -49 12 -55 8 -13 184 -2 198 12 6
6 1 27 -13 55 l-22 45 -57 -2 c-31 0 -72 -3 -91 -5z"/>
<path d="M2303 1013 c-60 -5 -66 -16 -36 -78 16 -33 20 -35 64 -35 26 0 51 5
54 10 3 6 22 10 41 10 39 0 41 8 17 62 -18 42 -10 40 -140 31z"/>
<path d="M2025 980 c-3 -5 -26 -10 -51 -10 -24 0 -44 -4 -44 -9 0 -16 30 -80
40 -86 6 -4 49 -4 95 0 95 8 98 11 65 75 -19 36 -24 40 -60 40 -21 0 -42 -4
-45 -10z"/>
<path d="M1658 943 c-32 -5 -35 -23 -13 -77 13 -31 20 -36 50 -36 18 0 37 5
40 10 3 6 29 10 57 10 49 0 50 1 44 26 -4 14 -14 37 -23 50 -13 21 -22 24 -72
23 -31 -1 -68 -4 -83 -6z"/>
<path d="M1408 923 c-32 -2 -58 -8 -58 -13 0 -6 -9 -10 -20 -10 -25 0 -25 -6
1 -59 l21 -44 86 7 c47 4 90 10 94 12 13 8 9 37 -7 58 -8 11 -15 28 -15 38 0
13 -7 17 -22 16 -13 -1 -49 -3 -80 -5z"/>
<path d="M1606 771 c-3 -5 -54 -12 -112 -16 -120 -8 -128 -14 -98 -73 11 -20
20 -39 21 -40 1 -2 69 2 153 9 l151 13 -7 30 c-13 63 -32 86 -69 86 -18 0 -36
-4 -39 -9z"/>
<path d="M4500 3967 c-14 -6 -31 -17 -38 -24 -7 -7 -20 -13 -27 -13 -22 0 -52
-46 -59 -89 -6 -37 -11 -42 -55 -61 -50 -22 -75 -49 -106 -113 -10 -22 -27
-40 -40 -43 -13 -3 -31 -14 -41 -25 -9 -10 -22 -19 -28 -19 -23 0 -56 -78 -56
-133 0 -45 -3 -56 -18 -59 -11 -3 -29 -25 -40 -49 -25 -51 -21 -98 11 -164 10
-22 29 -60 41 -83 22 -46 78 -102 84 -84 1 5 -15 36 -38 68 -43 61 -54 94 -65
186 -5 49 -4 58 12 67 23 12 36 -5 53 -70 14 -52 62 -120 125 -177 51 -48 80
-53 97 -17 18 39 -5 94 -67 166 -89 102 -99 113 -119 124 -46 26 -22 177 33
203 13 6 26 10 28 8 2 -2 6 -34 10 -72 3 -38 9 -73 13 -79 4 -5 15 -35 25 -65
19 -58 41 -96 115 -197 34 -47 53 -63 78 -69 50 -10 65 9 60 76 -4 52 -44 171
-61 178 -4 2 -5 8 -1 13 3 5 0 9 -5 9 -6 0 -11 5 -11 10 0 18 -44 105 -57 113
-7 4 -13 13 -13 19 0 7 -18 33 -40 59 -22 26 -40 53 -40 60 0 6 16 32 36 56
51 62 73 57 90 -22 12 -60 98 -245 114 -245 4 0 11 -12 14 -26 4 -14 35 -55
69 -92 58 -63 65 -67 110 -70 32 -2 49 1 52 10 27 76 25 189 -5 268 -13 34
-29 64 -37 67 -8 3 -20 18 -29 34 -8 16 -21 29 -29 29 -8 0 -15 6 -15 14 0 19
-129 136 -150 136 -15 0 -50 29 -50 42 0 8 32 41 68 71 50 41 89 36 165 -17
159 -114 222 -171 233 -214 4 -12 15 -27 25 -33 11 -5 19 -14 19 -20 0 -5 12
-28 27 -52 40 -61 49 -85 63 -166 10 -58 15 -71 28 -69 14 3 17 16 15 83 -1
45 -7 81 -12 83 -6 2 -11 10 -11 17 0 25 -48 117 -69 131 -12 9 -21 21 -21 28
0 16 -179 210 -224 244 -16 12 -36 22 -42 22 -7 0 -17 6 -21 13 -22 34 -121
48 -173 24z m40 -324 c12 -18 28 -33 34 -33 12 0 116 -149 116 -165 0 -6 6
-22 13 -36 30 -57 28 -149 -3 -149 -15 0 -110 104 -110 121 0 9 -6 19 -14 22
-7 3 -26 40 -41 81 -15 42 -32 79 -36 82 -5 3 -9 13 -9 22 0 9 -6 29 -14 43
-7 14 -16 37 -19 51 l-7 25 34 -16 c18 -9 44 -31 56 -48z m-247 -137 c20 -30
37 -58 37 -62 0 -4 18 -37 39 -73 22 -36 42 -82 46 -101 4 -19 11 -39 15 -45
4 -5 10 -29 13 -53 5 -41 4 -43 -12 -28 -10 9 -23 16 -29 16 -7 0 -12 6 -12
13 0 8 -11 23 -23 36 -13 12 -35 45 -48 74 -13 28 -30 57 -37 62 -7 6 -15 22
-17 35 -2 14 -8 52 -14 85 -20 113 -13 120 42 41z m-104 -262 c52 -56 81 -109
81 -146 0 -16 -3 -17 -20 -8 -11 6 -20 17 -20 26 0 8 -7 17 -15 20 -8 4 -15
11 -15 16 0 5 -15 28 -34 50 -19 22 -39 53 -45 69 -16 47 10 36 68 -27z"/>
</g>
</svg>
