<?xml version="1.0" standalone="no"?>
<!DOCTYPE svg PUBLIC "-//W3C//DTD SVG 20010904//EN"
 "http://www.w3.org/TR/2001/REC-SVG-20010904/DTD/svg10.dtd">
<svg version="1.0" xmlns="http://www.w3.org/2000/svg"
 width="1280.000000pt" height="1280.000000pt" viewBox="0 0 1280.000000 1280.000000"
 preserveAspectRatio="xMidYMid meet">

<g transform="translate(0.000000,1280.000000) scale(0.100000,-0.100000)"
fill="White" stroke="none">
<path d="M4883 12424 c-23 -22 -33 -42 -33 -63 0 -22 -7 -35 -25 -47 -22 -14
-25 -23 -25 -75 0 -51 -3 -61 -25 -75 -24 -16 -25 -20 -25 -124 0 -104 -1
-108 -25 -124 -23 -15 -25 -22 -25 -100 0 -78 -2 -85 -25 -100 -24 -16 -25
-20 -25 -126 0 -61 -4 -110 -9 -110 -5 0 -17 -7 -25 -16 -13 -12 -16 -38 -16
-119 0 -94 -2 -105 -20 -115 -11 -6 -20 -17 -20 -25 0 -8 9 -19 20 -25 11 -6
20 -19 20 -30 0 -10 -9 -22 -20 -25 -18 -6 -20 -15 -20 -86 0 -72 -2 -82 -25
-103 -22 -21 -25 -31 -25 -100 0 -69 -2 -78 -25 -98 -24 -20 -25 -27 -25 -125
0 -98 -1 -103 -25 -119 l-25 -16 0 -184 0 -184 -25 -16 c-24 -16 -25 -20 -25
-120 0 -99 -1 -104 -25 -120 -14 -9 -25 -24 -25 -34 0 -9 11 -22 25 -28 18 -9
25 -19 25 -41 0 -29 -22 -61 -41 -61 -5 0 -9 -49 -9 -110 0 -106 -1 -110 -25
-126 -25 -16 -25 -18 -25 -149 0 -131 0 -133 -25 -149 l-25 -16 0 -203 c0
-219 2 -227 53 -227 19 0 36 -9 49 -25 16 -21 28 -25 72 -25 43 0 57 -4 76
-25 14 -14 35 -25 50 -25 16 0 35 -10 48 -25 14 -16 32 -25 51 -25 19 0 34 -8
45 -25 18 -27 42 -24 51 6 6 19 45 27 45 10 0 -19 32 -41 60 -41 19 0 33 -7
40 -20 10 -18 21 -20 140 -20 126 0 131 -1 152 -25 20 -23 29 -25 100 -25 71
0 80 -2 100 -25 21 -24 26 -25 149 -25 124 0 128 -1 147 -25 19 -24 23 -25
151 -25 128 0 131 0 147 -25 15 -23 22 -25 99 -25 77 0 84 -2 99 -25 16 -25
19 -25 146 -25 125 0 129 -1 148 -25 19 -24 23 -25 151 -25 128 0 131 0 147
-25 16 -24 20 -25 124 -25 104 0 108 -1 124 -25 16 -25 19 -25 144 -25 124 0
129 -1 152 -25 14 -14 35 -25 50 -25 15 0 36 -11 50 -25 31 -33 72 -33 94 0
21 32 39 32 56 1 9 -18 23 -26 49 -28 l36 -3 3 -67 c3 -59 1 -67 -18 -73 -19
-6 -20 -14 -20 -140 0 -132 0 -135 -25 -151 -25 -16 -25 -18 -25 -150 0 -131
0 -134 -25 -150 -25 -16 -25 -17 -25 -169 0 -126 -3 -156 -16 -169 -8 -9 -20
-16 -25 -16 -5 0 -9 -59 -9 -135 0 -132 0 -135 -25 -151 -25 -16 -25 -18 -25
-149 0 -131 0 -133 -25 -149 -25 -16 -25 -17 -25 -171 0 -126 -3 -156 -16
-169 -8 -9 -20 -16 -25 -16 -5 0 -9 -59 -9 -135 0 -132 0 -135 -25 -151 -25
-16 -25 -19 -25 -146 l0 -129 -35 -36 c-42 -43 -65 -39 -65 11 0 27 -6 40 -25
52 -18 12 -25 25 -25 50 0 25 -7 38 -25 50 -18 11 -25 25 -25 47 0 24 -11 41
-50 77 -48 44 -50 49 -50 99 0 45 -4 56 -34 86 -32 34 -56 45 -56 25 0 -5 -24
-34 -54 -63 -43 -44 -53 -60 -49 -80 4 -19 -1 -29 -21 -42 -19 -13 -26 -26
-26 -51 0 -37 -9 -45 -60 -54 l-35 -5 -3 -62 c-2 -52 -6 -64 -27 -77 -18 -12
-25 -25 -25 -50 0 -25 -7 -38 -25 -50 -22 -14 -25 -24 -25 -75 0 -51 -3 -61
-25 -75 -23 -15 -24 -21 -27 -128 -4 -141 -8 -144 -83 -54 -22 26 -38 36 -59
36 -23 0 -41 12 -77 50 -36 38 -54 50 -77 50 -35 0 -56 21 -47 49 5 15 -11 36
-70 95 -61 60 -75 80 -75 105 0 22 -7 35 -25 47 -17 11 -25 25 -25 45 0 20
-11 41 -35 64 -33 34 -65 46 -65 25 0 -6 -11 -20 -25 -32 l-25 -22 0 -603 c0
-557 1 -604 17 -610 11 -4 21 0 27 12 6 10 21 27 34 38 14 13 22 32 22 52 0
24 6 35 25 43 32 15 32 27 0 48 -32 21 -32 37 1 59 l25 16 -2 277 c-2 254 -1
277 16 287 13 8 20 6 29 -9 6 -10 82 -90 170 -177 130 -130 164 -159 187 -159
18 0 32 -7 39 -20 7 -14 21 -20 45 -20 23 0 39 -7 52 -24 24 -31 123 -45 144
-20 12 14 10 19 -14 38 -26 21 -27 24 -27 128 0 102 1 106 25 122 23 15 25 22
25 100 0 78 2 85 25 100 22 15 25 24 25 76 0 33 3 60 8 60 4 0 26 19 50 41 33
32 42 48 42 74 0 25 5 35 20 40 23 7 31 33 28 95 -3 36 0 45 15 48 27 5 88
-65 81 -93 -5 -22 17 -55 37 -55 5 0 9 -15 9 -34 0 -33 21 -66 41 -66 5 0 9
-16 9 -35 0 -27 8 -42 36 -67 20 -18 42 -37 50 -41 8 -4 14 -23 14 -42 0 -26
6 -39 25 -51 l25 -16 0 -183 0 -183 -25 -16 c-25 -16 -25 -19 -25 -150 0 -132
0 -134 -25 -150 -25 -16 -25 -19 -25 -151 0 -76 -4 -135 -9 -135 -19 0 -41
-32 -41 -59 0 -47 -12 -51 -177 -51 -142 0 -154 -1 -165 -20 -10 -16 -24 -20
-70 -20 -50 0 -60 -3 -74 -25 l-16 -25 -204 0 -204 0 -22 -25 c-20 -24 -27
-25 -124 -25 -97 0 -104 -1 -122 -25 l-20 -25 -205 0 -205 0 -16 -25 -16 -25
-405 0 -405 0 -16 25 c-14 22 -23 25 -74 25 -50 0 -60 3 -74 25 -14 21 -25 24
-78 27 l-63 3 -3 33 c-3 27 3 40 32 68 21 21 45 34 61 34 18 0 40 15 73 50 34
36 55 50 75 50 16 0 36 10 49 25 13 16 32 25 50 25 18 0 36 9 50 25 13 15 32
25 48 25 40 0 300 260 300 299 0 20 13 39 50 73 49 45 50 48 50 102 0 48 3 58
25 72 22 14 25 24 25 71 0 53 -2 56 -50 101 -39 36 -50 53 -50 76 0 24 -10 39
-40 64 l-39 32 -224 0 -225 0 -16 -25 c-15 -23 -22 -25 -100 -25 -78 0 -85 -2
-100 -25 -14 -21 -24 -25 -69 -25 -44 0 -58 -4 -77 -25 -14 -14 -35 -25 -50
-25 -15 0 -36 -11 -50 -25 -14 -14 -35 -25 -50 -25 -15 0 -36 -11 -50 -25 -13
-14 -35 -25 -49 -25 -18 0 -41 -16 -74 -50 -35 -36 -56 -50 -75 -50 -20 0 -40
-13 -70 -45 -30 -32 -50 -45 -69 -45 -21 0 -45 -18 -100 -75 l-71 -75 -54 0
c-45 0 -59 4 -78 25 -14 14 -35 25 -50 25 -15 0 -36 11 -50 25 -19 20 -33 25
-75 25 -42 0 -55 4 -73 25 -21 24 -27 25 -126 25 -100 0 -104 1 -120 25 -16
24 -21 25 -117 25 -94 0 -101 -2 -123 -25 -22 -24 -29 -25 -125 -25 -95 0
-102 -1 -123 -25 -13 -15 -32 -25 -48 -25 -15 0 -36 -11 -50 -25 -14 -14 -35
-25 -50 -25 -15 0 -36 -11 -50 -25 -19 -21 -33 -25 -76 -25 -44 0 -56 -4 -72
-25 -14 -17 -30 -25 -51 -25 -22 0 -35 -7 -47 -25 -12 -18 -25 -25 -47 -25
-24 0 -41 -11 -78 -50 -34 -36 -54 -50 -74 -50 -22 0 -64 -38 -221 -195 -160
-161 -199 -195 -222 -195 -36 0 -52 -16 -52 -53 0 -22 -16 -44 -75 -101 -58
-56 -75 -79 -75 -101 0 -20 -13 -40 -50 -74 l-50 -47 0 -171 0 -171 42 -41
c24 -22 46 -41 51 -41 4 0 7 -15 7 -33 0 -30 19 -52 185 -218 140 -139 192
-185 213 -187 20 -2 51 -26 102 -78 57 -56 81 -74 102 -74 17 0 33 -8 40 -20
11 -17 24 -20 93 -20 50 0 86 -5 93 -12 8 -8 12 -53 12 -137 0 -130 3 -143 33
-154 12 -5 17 -17 17 -44 0 -32 -7 -43 -40 -70 -21 -18 -49 -33 -63 -33 -13 0
-33 -11 -45 -25 -13 -15 -33 -25 -49 -25 -20 0 -41 -14 -76 -50 -36 -37 -56
-50 -77 -50 -32 0 -41 -10 -44 -48 -2 -20 -29 -54 -99 -122 l-97 -95 0 -53 c0
-47 4 -56 35 -87 33 -34 37 -35 110 -35 68 0 78 -3 99 -25 l23 -25 351 0 352
0 16 25 c23 35 75 35 98 0 12 -18 25 -25 50 -25 25 0 38 -7 50 -25 12 -18 25
-25 50 -25 25 0 38 -7 50 -25 12 -19 25 -25 52 -25 52 0 55 -25 8 -63 -21 -18
-49 -44 -63 -59 -16 -18 -34 -28 -53 -28 -20 0 -40 -13 -74 -49 -31 -33 -57
-51 -75 -53 -41 -4 -289 -251 -289 -287 0 -31 -9 -45 -32 -54 -16 -6 -18 -21
-18 -121 0 -132 -5 -126 104 -126 65 0 75 -3 94 -25 21 -24 26 -25 146 -25
121 0 125 1 144 25 19 24 25 25 126 25 102 0 106 1 122 25 16 24 20 25 124 25
104 0 108 1 124 25 14 22 24 25 75 25 52 0 61 3 75 25 12 18 25 25 47 25 24 0
41 11 78 50 35 37 54 50 75 50 18 0 35 9 48 25 13 16 29 25 49 25 22 0 40 12
76 50 33 35 55 50 73 50 15 0 37 11 50 25 13 14 35 25 50 25 18 0 41 15 75 50
l49 50 548 0 c537 0 547 0 558 20 10 18 21 20 115 20 100 0 106 1 127 25 20
24 27 25 123 25 95 0 103 2 125 25 l23 25 229 0 228 0 16 25 16 25 428 0 428
0 16 25 c16 24 21 25 119 25 97 0 105 1 127 25 l23 25 522 0 521 0 22 -25 c22
-25 24 -25 176 -25 153 0 154 0 170 -25 l16 -25 279 0 279 0 16 25 c16 25 19
25 146 25 125 0 129 1 148 25 13 17 30 25 50 25 21 0 37 8 50 25 14 17 30 25
51 25 22 0 35 7 47 25 11 17 25 25 46 25 41 0 163 119 153 150 -5 14 2 28 24
48 22 20 29 33 25 49 -4 15 2 28 20 44 22 19 26 31 26 75 0 49 3 55 43 93 23
22 45 41 50 41 4 0 7 37 7 83 0 51 5 88 12 95 7 7 42 12 88 12 69 0 79 3 100
25 21 23 31 25 102 25 72 0 79 2 94 25 11 17 25 25 46 25 25 0 53 24 176 147
119 119 154 148 182 152 32 6 35 10 40 46 5 37 7 40 40 43 45 5 60 18 60 54 0
40 59 98 99 98 22 0 35 7 47 25 15 22 23 25 79 25 66 0 90 17 60 42 -87 74
-135 129 -135 153 0 40 -217 255 -257 255 -17 0 -33 8 -41 20 -8 13 -23 20
-42 20 -20 0 -38 9 -52 25 -20 23 -29 25 -98 25 -69 0 -79 3 -100 25 l-23 25
-318 0 c-175 0 -324 3 -333 6 -12 5 -16 20 -16 61 l0 55 -89 89 c-68 68 -96
89 -116 89 -20 0 -40 14 -74 50 -33 35 -55 50 -73 50 -17 0 -34 10 -47 28
l-21 27 -23 -28 c-12 -15 -26 -27 -31 -27 -5 0 -24 17 -42 37 -24 26 -34 46
-34 69 0 37 -12 44 -79 44 -38 0 -52 5 -71 25 -21 23 -31 25 -102 25 -67 0
-80 3 -90 20 -11 17 -24 20 -95 20 -77 0 -84 2 -99 25 -14 22 -23 25 -75 25
-51 0 -61 3 -75 25 l-16 25 -277 0 c-202 0 -280 3 -289 12 -7 7 -12 26 -12 43
0 24 6 35 25 43 32 15 32 40 0 52 -32 12 -32 33 0 54 23 15 25 22 25 100 0 79
1 83 25 94 l25 12 0 159 c0 157 0 159 25 175 21 14 24 25 27 78 l3 63 35 3
c46 5 60 18 60 57 0 24 7 37 26 50 20 13 25 23 21 42 -4 20 2 33 25 53 22 20
28 33 24 48 -6 17 8 36 68 94 61 59 75 80 78 108 2 25 8 36 22 38 23 5 36 -14
36 -53 0 -19 7 -35 20 -43 14 -8 20 -23 20 -47 0 -28 5 -38 25 -47 24 -11 25
-14 25 -119 0 -105 1 -109 25 -125 24 -16 25 -20 25 -125 0 -105 1 -109 25
-125 18 -12 25 -25 25 -49 0 -24 7 -37 25 -49 18 -12 25 -25 25 -47 0 -43 58
-99 104 -99 37 0 46 12 46 61 0 16 4 29 9 29 5 0 27 19 51 42 29 30 40 47 36
62 -4 15 18 43 94 118 75 74 100 105 100 125 0 37 67 101 111 105 l34 3 3 60
c2 32 8 65 14 72 13 17 110 17 126 1 7 -7 12 -38 12 -69 0 -49 3 -59 25 -73
22 -14 25 -24 25 -75 0 -52 3 -59 25 -69 24 -11 25 -14 25 -122 0 -106 1 -110
25 -126 24 -16 25 -20 25 -124 0 -105 1 -108 26 -125 l26 -17 -5 -131 c-4
-119 -7 -133 -26 -145 -17 -12 -21 -25 -21 -72 0 -51 -3 -60 -25 -74 -24 -16
-26 -22 -23 -79 l3 -62 39 -3 c48 -4 56 7 56 74 0 41 5 54 25 72 24 21 25 27
25 126 0 100 1 104 25 120 24 16 25 21 25 117 0 94 -2 101 -25 123 -24 22 -25
28 -25 149 0 101 -3 129 -16 141 -8 9 -20 16 -25 16 -5 0 -9 17 -9 39 0 30 5
42 25 55 14 9 25 21 25 26 0 6 -11 16 -25 22 -19 9 -25 19 -25 44 0 25 -7 38
-25 50 -22 14 -25 23 -25 75 0 51 -3 61 -25 75 -22 14 -25 23 -25 75 0 51 -3
61 -25 75 -18 12 -25 25 -25 48 0 44 -16 56 -73 56 -47 0 -52 -3 -113 -64 -46
-46 -64 -71 -64 -90 0 -20 -29 -55 -126 -151 -100 -99 -124 -128 -119 -144 5
-15 -11 -36 -70 -95 -60 -59 -75 -80 -75 -104 0 -39 -23 -59 -42 -37 -7 9 -23
26 -35 37 -20 19 -23 32 -23 99 0 75 -13 109 -41 109 -5 0 -9 27 -9 60 0 52
-3 61 -25 76 -22 14 -25 23 -25 74 0 51 -3 60 -25 74 -32 21 -32 40 0 54 14 6
25 19 25 27 0 9 -11 20 -25 25 -20 8 -25 16 -25 45 0 26 -6 39 -25 51 -22 14
-25 24 -25 71 0 48 -4 58 -34 88 -18 19 -36 35 -39 35 -3 0 -44 -39 -92 -87
-68 -70 -85 -93 -80 -110 4 -17 -7 -33 -45 -69 -33 -31 -50 -55 -50 -71 0 -29
-58 -103 -81 -103 -36 0 -39 63 -4 86 30 20 33 54 5 61 -25 7 -26 41 -2 50 23
9 32 23 32 53 0 14 11 34 28 47 l27 23 -27 23 c-37 30 -38 78 -3 101 22 15 25
23 25 77 0 52 3 62 19 66 30 8 33 31 6 49 -32 21 -32 37 0 58 23 15 25 22 25
99 0 71 3 84 20 95 18 11 20 23 20 116 0 82 3 108 16 120 8 9 20 16 25 16 5 0
9 68 9 160 0 159 0 160 25 176 23 15 25 22 25 99 0 77 2 84 25 99 25 16 25 19
25 146 0 104 3 132 16 144 8 9 20 16 25 16 5 0 9 59 9 135 0 132 0 135 25 151
23 15 25 22 25 99 0 77 2 84 25 99 20 13 25 25 25 56 0 55 24 53 75 -5 l40
-45 78 0 c70 0 79 -2 99 -25 21 -24 26 -25 149 -25 124 0 128 -1 147 -25 19
-24 25 -25 126 -25 102 0 106 -1 122 -25 16 -25 18 -25 149 -25 131 0 133 0
149 -25 14 -22 24 -25 71 -25 46 0 59 -4 77 -25 21 -24 26 -25 149 -25 124 0
128 -1 147 -25 17 -21 28 -25 76 -25 48 0 58 -3 72 -25 16 -24 20 -25 124 -25
104 0 108 -1 124 -25 16 -24 20 -25 125 -25 105 0 109 -1 125 -25 14 -21 24
-25 69 -25 44 0 58 -4 77 -25 22 -24 30 -25 127 -25 99 0 103 -1 119 -25 16
-25 18 -25 142 -24 69 0 131 3 139 6 7 3 13 19 13 37 0 36 8 50 33 59 14 5 17
18 17 66 0 54 3 62 25 77 23 15 25 22 25 100 0 78 2 85 25 100 24 16 25 20 25
124 0 104 1 108 25 124 23 15 25 22 25 100 0 78 2 85 25 100 22 15 25 24 25
76 0 33 4 60 9 60 28 0 41 34 41 109 0 70 2 79 25 99 23 20 25 29 25 101 0 73
2 80 25 95 17 11 25 26 25 46 0 20 -8 35 -25 46 -24 16 -35 54 -16 54 5 0 28
17 50 38 l41 38 0 106 c0 102 1 106 25 122 23 15 25 22 25 101 0 75 2 84 20
90 18 6 20 15 20 90 0 79 2 86 25 101 24 16 25 20 25 125 0 105 1 109 25 125
25 16 25 17 25 170 0 152 0 154 25 176 l25 22 0 203 0 203 25 12 c14 6 25 19
25 28 0 9 -11 22 -25 28 -32 15 -32 27 0 48 l25 16 0 258 0 258 -25 16 c-17
11 -25 26 -25 46 0 23 -13 43 -62 90 l-63 60 -126 0 c-124 0 -127 1 -143 25
-15 23 -22 25 -100 25 -78 0 -85 2 -100 25 -16 24 -20 25 -124 25 -96 0 -108
2 -120 20 -10 17 -23 20 -91 20 -73 0 -81 2 -99 25 -18 23 -26 25 -100 25 -74
0 -82 2 -100 25 -18 23 -26 25 -101 25 -75 0 -82 2 -97 25 -16 24 -20 25 -124
25 -104 0 -108 1 -124 25 -16 24 -21 25 -119 25 -97 0 -105 1 -127 25 -22 24
-30 25 -127 25 -98 0 -103 1 -119 25 -15 23 -22 25 -100 25 -78 0 -85 2 -100
25 -16 24 -20 25 -124 25 -104 0 -108 1 -124 25 -16 24 -21 25 -119 25 -97 0
-105 1 -127 25 -22 24 -30 25 -127 25 -98 0 -103 1 -119 25 -16 25 -19 25
-146 25 -127 0 -131 1 -150 25 -11 14 -24 25 -29 25 -5 0 -15 -11 -21 -25 -6
-14 -17 -25 -24 -25 -8 0 -21 11 -30 25 -16 24 -21 25 -118 25 -96 0 -104 1
-126 25 -23 24 -28 25 -150 25 -122 0 -127 1 -148 25 -22 25 -24 25 -176 25
-143 0 -155 1 -161 19 -9 30 -33 33 -51 6 -21 -32 -37 -32 -58 0 -16 24 -21
25 -121 25 -94 0 -106 2 -117 20 -12 19 -24 20 -170 20 -157 0 -158 0 -174 25
-16 25 -17 25 -170 25 -152 0 -154 0 -176 25 -22 25 -22 25 -199 25 l-177 0
-16 25 c-21 32 -39 32 -61 -2 l-18 -27 -23 27 -23 27 -151 0 c-148 0 -150 0
-172 25 l-22 25 -278 0 -278 0 -12 25 c-15 32 -31 32 -57 -2 l-21 -28 -23 28
-23 27 -179 -1 -180 -2 -32 -33z m515 -189 c12 -14 33 -25 47 -25 15 0 31 9
41 25 16 24 54 35 54 16 0 -5 7 -17 16 -25 13 -14 47 -16 215 -16 188 0 200
-1 211 -20 7 -11 20 -20 30 -20 9 0 20 9 23 20 3 11 15 20 25 20 10 0 22 -9
25 -20 3 -11 15 -20 25 -20 10 0 22 9 25 20 3 11 14 20 23 20 10 0 23 -9 30
-20 10 -17 23 -20 92 -20 74 0 81 -2 96 -25 15 -22 23 -25 79 -25 56 0 64 3
79 25 10 16 26 25 42 25 14 0 35 -11 48 -25 21 -22 31 -25 100 -25 69 0 78 -2
98 -25 l22 -25 203 0 203 0 16 -25 c16 -24 20 -25 124 -25 104 0 108 -1 124
-25 16 -25 17 -25 171 -25 154 0 155 0 171 -25 9 -14 23 -25 30 -25 8 0 20 11
26 25 6 14 17 25 23 25 7 0 20 -11 29 -25 16 -24 21 -25 121 -25 100 0 105 -1
121 -25 l16 -25 180 0 180 0 20 -25 c18 -23 26 -25 98 -25 74 0 80 -2 99 -27
l21 -28 23 28 c28 34 44 34 59 2 11 -24 14 -25 118 -25 104 0 108 -1 124 -25
16 -24 20 -25 125 -25 105 0 109 -1 125 -25 16 -24 21 -25 119 -25 97 0 105
-1 127 -25 22 -23 30 -25 125 -25 96 0 103 -1 123 -25 21 -24 27 -25 126 -25
100 0 104 -1 120 -25 16 -24 20 -25 122 -25 101 0 107 -1 126 -25 18 -23 26
-25 97 -25 65 0 81 -3 96 -20 15 -17 31 -20 96 -20 71 0 79 -2 97 -25 19 -24
25 -25 126 -25 102 0 106 -1 122 -25 15 -23 22 -25 99 -25 77 0 84 -2 99 -25
15 -23 22 -25 96 -25 73 0 82 -2 102 -25 20 -23 29 -25 98 -25 69 0 79 -3 100
-25 23 -25 26 -25 177 -25 152 0 153 0 169 -25 12 -18 25 -25 49 -25 38 0 59
-21 50 -49 -4 -15 1 -28 19 -45 l26 -23 0 -281 c0 -271 -1 -282 -20 -292 -19
-10 -20 -21 -20 -215 0 -172 -2 -206 -16 -219 -8 -9 -20 -16 -25 -16 -5 0 -9
-59 -9 -135 0 -132 0 -135 -25 -151 -24 -16 -25 -20 -25 -125 0 -105 -1 -109
-25 -125 -24 -16 -25 -20 -25 -124 0 -104 -1 -108 -25 -124 -23 -15 -25 -22
-25 -96 0 -76 -12 -110 -41 -110 -5 0 -9 -49 -9 -109 0 -105 -1 -109 -25 -125
-14 -9 -25 -23 -25 -31 0 -9 11 -20 25 -25 29 -11 33 -38 8 -47 -10 -4 -32
-22 -50 -40 l-33 -32 0 -105 c0 -100 -1 -104 -25 -120 -23 -15 -25 -22 -25
-100 0 -78 -2 -85 -25 -100 -18 -12 -25 -25 -25 -50 0 -25 -7 -38 -25 -50 -24
-16 -25 -21 -25 -121 0 -100 -1 -105 -25 -121 -22 -14 -25 -23 -25 -76 0 -45
-5 -67 -21 -90 -13 -17 -24 -54 -28 -88 -4 -33 -14 -67 -23 -77 -9 -10 -23
-35 -31 -55 -17 -40 -34 -52 -87 -62 -31 -5 -37 -3 -52 24 -17 30 -18 30 -101
30 -79 0 -86 2 -101 25 -15 23 -22 25 -97 25 -75 0 -83 2 -101 25 -18 24 -25
25 -122 25 -97 0 -104 1 -124 25 -20 23 -29 25 -102 25 -74 0 -81 2 -96 25
-16 24 -20 25 -124 25 -104 0 -108 1 -124 25 -16 25 -19 25 -144 25 -124 0
-129 1 -152 25 -21 23 -31 25 -102 25 -67 0 -80 3 -90 20 -11 17 -24 20 -95
20 -77 0 -84 2 -99 25 -16 24 -20 25 -124 25 -104 0 -108 1 -124 25 -16 24
-21 25 -121 25 -100 0 -106 1 -127 25 -20 23 -29 25 -99 25 -71 0 -79 2 -97
25 -19 24 -23 25 -151 25 -128 0 -131 0 -147 25 -16 24 -20 25 -124 25 -104 0
-108 1 -124 25 -15 23 -22 25 -97 25 -75 0 -83 2 -101 25 -19 24 -24 25 -123
25 -99 0 -104 1 -123 25 -19 24 -23 25 -151 25 -128 0 -131 0 -147 25 -15 23
-22 25 -93 25 -70 0 -80 -3 -101 -25 -19 -21 -33 -25 -77 -25 -50 0 -55 2
-100 50 -45 47 -50 50 -98 50 -42 0 -56 5 -75 25 -22 23 -30 25 -125 25 -96 0
-103 1 -123 25 -21 24 -26 25 -151 25 -126 0 -129 0 -145 25 -16 25 -17 25
-169 25 -151 0 -154 0 -177 25 -21 23 -31 25 -102 25 -67 0 -80 3 -90 20 -12
18 -24 20 -120 20 -104 0 -108 1 -124 25 -16 25 -19 25 -145 25 -125 0 -130 1
-151 25 -20 24 -27 25 -124 25 -97 0 -104 1 -122 25 -18 23 -26 25 -101 25
-75 0 -82 2 -97 25 -15 23 -22 25 -100 25 -78 0 -85 2 -100 25 -14 22 -23 25
-74 25 -51 0 -60 3 -74 25 -12 18 -25 25 -47 25 -21 0 -40 10 -64 35 l-35 34
0 179 c0 178 0 178 25 200 24 21 25 26 25 151 0 126 0 129 25 145 25 16 25 17
25 176 0 92 4 160 9 160 5 0 17 7 25 16 13 12 16 38 16 119 0 94 2 105 20 115
19 10 20 21 20 190 0 149 3 181 16 194 8 9 20 16 25 16 16 0 9 40 -8 47 -32
12 -33 27 -2 55 17 16 27 33 24 38 -10 17 5 49 26 55 18 6 19 17 19 165 0 159
0 160 25 176 23 15 25 22 25 100 0 78 2 85 25 100 23 15 25 22 25 99 0 77 2
84 25 99 24 16 25 20 25 125 0 105 1 109 25 125 25 16 25 19 25 146 0 127 0
130 25 146 22 14 25 23 25 75 0 51 3 61 25 75 18 12 25 25 25 48 0 18 3 36 7
39 3 4 88 7 188 7 181 0 181 0 203 -25z m2664 -4340 c18 -23 26 -25 97 -25 69
0 80 -3 101 -25 20 -21 33 -25 104 -27 l81 -3 3 -59 c3 -53 0 -62 -22 -83 -25
-23 -26 -27 -26 -152 0 -126 0 -129 -25 -145 -23 -15 -25 -22 -25 -101 0 -74
-2 -86 -20 -95 -19 -10 -20 -21 -20 -165 0 -154 0 -155 -25 -171 -27 -17 -34
-54 -11 -54 7 0 19 -6 25 -14 9 -11 8 -18 -4 -30 -9 -9 -21 -16 -26 -16 -5 0
-9 -38 -9 -85 0 -79 -2 -86 -25 -101 -23 -15 -25 -22 -25 -100 0 -80 -1 -85
-25 -96 -14 -6 -25 -19 -25 -28 0 -9 11 -22 25 -28 14 -6 25 -16 25 -22 0 -5
-11 -17 -25 -26 -21 -14 -25 -24 -25 -69 0 -51 -16 -85 -41 -85 -5 0 -9 -18
-9 -40 0 -30 5 -42 18 -47 38 -14 41 -39 7 -55 -22 -10 -25 -17 -25 -69 0 -51
-3 -61 -25 -75 -25 -16 -25 -18 -25 -149 0 -131 0 -133 -25 -149 -24 -16 -25
-20 -25 -125 0 -105 -1 -109 -25 -125 -24 -16 -25 -21 -25 -121 0 -100 -1
-105 -25 -121 -25 -16 -25 -17 -25 -174 0 -157 0 -158 -25 -174 -23 -15 -25
-22 -25 -100 0 -78 -2 -85 -25 -100 -24 -16 -25 -20 -25 -126 0 -61 -4 -110
-9 -110 -20 0 -41 -33 -41 -65 0 -21 -6 -35 -16 -39 -9 -3 -82 -6 -163 -6
-145 0 -148 0 -169 -25 -21 -24 -27 -25 -127 -25 -58 0 -105 -4 -105 -9 0 -17
-30 -40 -45 -35 -10 4 -15 20 -15 44 0 29 6 41 25 54 24 16 25 20 25 126 0
109 0 111 25 120 25 9 25 10 25 145 0 133 0 135 25 151 22 14 25 23 25 74 0
51 3 60 25 74 l25 16 0 255 0 255 25 16 c24 16 25 20 25 124 0 104 1 108 25
124 14 9 25 21 25 26 0 6 -11 16 -25 22 -14 6 -25 19 -25 28 0 9 11 22 25 28
25 12 25 12 25 146 0 132 0 134 25 150 25 16 25 17 25 169 0 151 0 154 25 175
24 21 25 27 25 126 0 100 1 104 25 120 25 16 25 19 25 150 0 125 1 134 20 139
12 3 20 14 20 25 0 12 -9 23 -20 27 -11 3 -20 15 -20 25 0 11 9 24 20 30 17 9
20 21 20 90 0 74 2 81 25 96 32 21 32 37 0 58 -27 18 -24 42 6 51 16 5 19 16
19 65 0 52 3 62 25 76 25 16 25 18 25 149 0 131 0 133 25 149 36 23 34 73 -2
103 l-28 22 40 35 40 35 129 1 c125 0 129 -1 148 -25z m-3247 -2920 c25 -24
35 -43 35 -64 0 -22 7 -35 25 -47 22 -14 25 -23 25 -74 0 -51 -3 -60 -25 -74
-17 -11 -25 -26 -25 -46 0 -24 -26 -56 -160 -189 -124 -125 -165 -161 -185
-161 -19 0 -45 -20 -99 -75 -59 -61 -79 -75 -103 -75 -22 0 -36 -7 -47 -25
-12 -18 -25 -25 -47 -25 -24 0 -43 -14 -98 -70 l-69 -70 -55 0 c-53 0 -59 2
-99 44 l-43 44 -85 4 c-82 3 -85 2 -88 -19 -2 -13 1 -23 5 -23 5 0 18 -6 28
-14 16 -11 17 -17 7 -29 -10 -12 -32 -14 -116 -10 -104 6 -104 6 -121 -21 -15
-23 -24 -26 -73 -26 -54 0 -57 -2 -103 -50 -37 -39 -54 -50 -78 -50 -22 0 -35
-7 -47 -25 -11 -17 -25 -25 -45 -25 -22 0 -43 -14 -89 -60 -83 -83 -81 -90 29
-90 84 0 90 1 105 25 12 18 25 25 50 25 25 0 38 7 50 25 12 18 25 25 50 25 25
0 38 7 50 25 12 18 25 25 47 25 21 0 37 8 51 25 13 17 29 25 50 25 20 0 37 8
50 25 19 25 20 25 192 25 171 0 173 0 196 -25 19 -20 33 -25 75 -25 42 0 56
-5 75 -25 20 -22 32 -25 109 -27 78 -3 86 -5 86 -23 0 -20 -8 -20 -331 -23
l-331 -2 -23 -25 c-14 -14 -35 -25 -50 -25 -15 0 -36 -11 -50 -25 -14 -14 -35
-25 -50 -25 -15 0 -36 -11 -50 -25 -19 -20 -33 -25 -74 -25 -43 -1 -57 -6 -89
-34 -58 -51 -45 -66 58 -66 77 0 85 2 103 25 17 21 28 25 76 25 48 0 58 3 72
25 12 18 25 25 50 25 25 0 38 7 50 25 12 18 25 25 48 25 22 0 39 8 54 25 22
25 23 25 195 25 172 0 174 0 197 -25 14 -15 35 -25 51 -25 21 0 41 -13 75 -50
34 -36 54 -50 74 -50 16 0 35 -10 48 -25 13 -15 33 -25 49 -25 15 0 37 -10 50
-22 l23 -21 23 21 c29 27 43 28 50 2 7 -26 36 -37 48 -19 14 22 11 29 -16 41
-14 6 -25 17 -25 25 0 7 -11 18 -24 23 -14 5 -30 18 -36 30 -7 13 -21 20 -39
20 -15 0 -37 10 -49 23 -12 12 -36 33 -53 47 -52 43 -58 50 -53 65 9 22 45 18
51 -5 3 -10 15 -22 27 -26 11 -3 30 -14 41 -24 11 -10 32 -22 47 -25 15 -4 30
-15 33 -25 3 -11 14 -22 24 -25 10 -3 23 -17 29 -30 8 -18 20 -25 39 -25 18 0
42 -13 69 -39 34 -31 41 -43 37 -64 -4 -21 0 -29 21 -38 30 -14 34 -44 9 -58
-10 -5 -36 -28 -58 -50 -27 -28 -49 -41 -68 -41 -16 0 -36 -10 -49 -25 -13
-15 -32 -25 -48 -25 -15 0 -36 -11 -50 -25 -21 -22 -31 -25 -101 -25 -71 0
-79 -2 -97 -25 -17 -21 -28 -25 -76 -25 -48 0 -58 -3 -72 -25 -15 -23 -22 -25
-100 -25 -78 0 -85 -2 -100 -25 -16 -25 -18 -25 -150 -25 -123 0 -134 2 -144
20 -7 12 -25 22 -51 26 -24 4 -44 14 -50 25 -6 11 -26 21 -50 25 -23 4 -44 14
-49 24 -5 10 -25 21 -44 24 -26 5 -58 29 -121 90 -78 77 -109 128 -69 112 9
-3 19 -6 24 -6 5 0 12 -9 15 -20 4 -14 15 -20 36 -20 22 0 42 -12 79 -50 37
-38 56 -50 79 -50 22 0 35 -7 47 -25 12 -18 25 -25 50 -25 24 0 38 -7 49 -24
15 -23 23 -24 159 -31 161 -8 189 -4 184 28 -3 20 -10 22 -88 25 -75 2 -88 6
-108 27 -13 15 -34 25 -50 25 -20 0 -40 13 -70 45 -32 34 -50 45 -72 45 -20 0
-35 8 -46 25 -12 18 -25 25 -49 25 -23 0 -39 7 -52 24 -16 21 -29 24 -101 29
-80 5 -84 4 -94 -19 -6 -13 -19 -26 -29 -29 -10 -3 -21 -15 -24 -26 -8 -25
-42 -25 -50 2 -11 33 -49 21 -53 -16 -3 -27 10 -43 110 -143 85 -84 119 -112
139 -112 14 0 36 -11 49 -25 14 -15 35 -25 51 -25 17 0 35 -9 47 -25 14 -17
30 -25 51 -25 22 0 35 -7 47 -25 l16 -25 255 0 255 0 20 25 c16 21 28 25 72
25 43 0 57 4 76 25 21 22 31 25 100 25 69 0 78 2 98 25 20 23 29 25 102 25 74
0 81 2 96 25 12 18 25 25 49 25 24 0 37 7 49 25 11 17 26 25 46 25 23 0 47 17
115 84 104 104 107 117 36 185 -38 35 -50 54 -53 81 -3 33 -6 35 -41 38 -26 2
-42 10 -53 28 -12 17 -25 24 -48 24 -21 0 -40 8 -54 23 -11 12 -28 28 -36 35
-8 6 -13 19 -10 27 5 13 70 15 486 15 l480 0 20 25 19 25 179 0 180 0 16 25
c16 25 18 25 149 25 131 0 133 0 149 25 16 24 20 25 122 25 101 0 107 1 126
25 l19 25 204 0 203 0 16 25 16 25 206 0 206 0 20 25 19 25 443 0 443 0 23
-25 c22 -24 30 -25 127 -25 98 0 103 -1 119 -25 15 -23 22 -25 100 -25 78 0
85 -2 100 -25 12 -18 25 -25 50 -25 25 0 38 -7 50 -25 12 -18 25 -25 49 -25
24 0 37 -7 49 -25 12 -18 25 -25 50 -25 25 0 38 -7 50 -25 12 -18 25 -25 50
-25 25 0 38 -7 50 -25 12 -18 25 -25 50 -25 25 0 38 -7 50 -25 12 -18 25 -25
47 -25 21 0 37 -8 50 -24 13 -17 32 -26 57 -28 35 -3 37 -5 38 -41 2 -56 20
-69 49 -33 35 44 55 30 55 -40 l0 -56 -101 -98 c-92 -90 -100 -101 -97 -132
l3 -33 85 -3 c81 -3 87 -1 110 23 14 14 35 25 50 25 15 0 36 11 50 25 19 21
33 25 76 25 43 0 55 4 64 20 6 11 18 20 28 20 9 0 23 -9 30 -20 12 -19 23 -20
243 -20 l231 0 20 25 c34 44 58 33 164 -75 73 -74 106 -100 124 -100 17 0 42
-16 75 -50 31 -32 58 -50 73 -50 24 0 102 -57 102 -75 0 -5 -18 -25 -40 -42
-32 -27 -47 -33 -87 -33 -41 0 -53 -5 -85 -36 -27 -25 -38 -44 -38 -64 0 -37
-63 -99 -100 -100 -19 0 -62 -37 -169 -145 -116 -117 -149 -145 -172 -145 -17
0 -35 -9 -47 -25 -19 -24 -25 -25 -123 -25 -100 0 -104 1 -126 27 l-23 28 -23
-28 c-28 -34 -40 -34 -57 -2 -10 19 -21 25 -46 25 -25 0 -38 7 -50 25 -15 23
-22 25 -89 25 -95 0 -105 -4 -105 -46 0 -26 9 -43 35 -69 31 -31 40 -35 88
-35 29 0 58 -5 65 -12 7 -7 12 -42 12 -85 0 -66 -3 -76 -25 -97 -20 -19 -25
-33 -25 -74 0 -48 -3 -53 -50 -99 -39 -37 -50 -55 -50 -79 0 -23 -7 -36 -25
-48 -18 -12 -25 -25 -25 -47 0 -40 -60 -99 -101 -99 -17 0 -35 -9 -47 -25 -14
-17 -30 -25 -51 -25 -22 0 -35 -7 -47 -25 -15 -24 -21 -25 -104 -25 -99 0
-120 -14 -73 -48 17 -13 24 -25 20 -36 -6 -14 -29 -16 -188 -16 l-181 0 -20
25 -19 25 -423 0 -423 0 -23 25 -23 25 -272 0 -272 0 -23 -25 -23 -25 -303 0
-302 0 -16 -25 -16 -25 -180 0 -179 0 -19 -25 -20 -25 -205 0 -205 0 -16 -25
-16 -25 -280 0 -280 0 -16 -25 c-16 -25 -18 -25 -149 -25 -131 0 -133 0 -149
-25 l-16 -25 -203 0 -203 0 -22 -25 -22 -25 -266 0 c-165 0 -273 4 -285 10
-13 7 -19 20 -17 38 3 46 -7 52 -94 52 -79 0 -82 -1 -114 -34 -28 -29 -33 -42
-36 -92 l-3 -59 -60 -3 c-57 -3 -62 -5 -106 -53 -37 -38 -54 -49 -78 -49 -22
0 -35 -7 -47 -25 -12 -18 -25 -25 -50 -25 -25 0 -38 -7 -50 -25 -12 -18 -25
-25 -50 -25 -25 0 -38 -7 -50 -25 -11 -17 -25 -25 -46 -25 -23 0 -41 -12 -77
-50 l-47 -50 -81 0 c-75 0 -82 -2 -97 -25 -15 -23 -22 -25 -94 -25 -71 0 -81
-2 -102 -25 -22 -24 -30 -25 -127 -25 -99 0 -103 -1 -119 -25 -15 -24 -22 -26
-78 -23 l-61 3 -3 66 c-3 62 -1 67 23 83 21 14 25 23 21 41 -5 21 11 41 110
140 86 86 122 115 141 115 18 0 45 20 94 70 54 55 74 70 97 70 36 0 49 15 54
60 3 32 6 35 38 38 27 3 46 15 81 53 36 37 54 49 77 49 35 0 56 21 47 48 -6
20 17 52 36 52 5 0 9 11 9 25 0 25 -1 25 -89 25 -84 0 -90 -1 -105 -25 -14
-22 -24 -25 -72 -25 -48 0 -59 4 -76 25 -16 21 -28 25 -71 25 l-52 0 -135 135
c-110 109 -135 139 -135 163 -1 21 -12 38 -40 63 -59 52 -66 60 -59 70 11 18
-6 58 -26 64 -14 5 -20 15 -20 38 0 24 -11 41 -50 78 l-50 47 0 81 c0 75 -2
82 -25 97 -23 15 -25 22 -25 98 0 50 5 87 12 94 8 8 53 12 138 12 114 0 129 2
145 20 14 15 31 20 70 20 42 0 56 5 75 25 18 20 34 25 84 27 50 2 61 6 64 22
2 10 -2 23 -10 28 -7 4 -80 6 -163 2 -141 -6 -151 -8 -173 -30 l-23 -24 -269
0 -269 0 -100 100 c-74 75 -106 100 -125 100 -19 0 -57 32 -161 135 -112 113
-135 141 -135 165 0 20 -8 35 -25 46 -18 12 -25 25 -25 50 0 25 -7 38 -25 50
-25 16 -25 19 -25 144 0 104 3 132 16 144 8 9 20 16 25 16 5 0 9 15 9 33 0 37
8 51 33 60 11 4 17 17 17 38 0 28 24 57 208 241 158 157 215 208 233 208 16 0
42 17 74 50 34 35 57 50 75 50 15 0 37 11 50 25 13 14 35 25 50 25 18 0 40 15
73 50 34 36 55 50 74 50 19 0 40 14 74 50 45 48 49 50 103 50 48 0 58 3 72 25
12 18 25 25 50 25 25 0 38 7 50 25 l16 25 229 0 229 0 16 -25 c14 -22 23 -25
74 -25 51 0 60 -3 74 -25 14 -22 24 -25 75 -25 52 0 61 -3 75 -25 12 -18 25
-25 50 -25 25 0 38 -7 50 -25 11 -17 26 -25 46 -25 23 0 42 -13 85 -58 30 -32
61 -67 70 -77 15 -20 16 -19 38 8 28 34 41 34 56 1 17 -38 45 -28 49 17 3 32
-2 41 -47 82 -28 25 -51 49 -51 55 0 5 11 17 25 26 17 11 25 26 25 45 0 39
112 151 151 151 14 0 36 11 49 25 13 14 35 25 49 25 18 0 40 14 69 45 31 33
50 45 71 45 20 0 36 9 49 25 14 17 30 25 51 25 22 0 35 7 47 25 12 18 25 25
50 25 25 0 38 7 50 25 12 18 25 25 50 25 25 0 38 7 50 25 14 22 23 25 75 25
51 0 61 3 75 25 16 25 17 25 170 25 l155 0 34 -35z m-2810 -3060 c23 -23 35
-44 35 -62 0 -22 17 -44 75 -100 60 -58 75 -78 75 -102 0 -20 8 -34 25 -45 28
-18 34 -66 11 -85 -9 -8 -114 -11 -367 -9 l-354 3 -3 36 c-3 33 4 42 104 142
82 83 113 107 133 107 19 0 40 14 74 50 36 38 54 50 77 50 20 0 35 8 46 25 21
33 28 32 69 -10z"/>
<path d="M5452 11218 c-7 -7 -12 -34 -12 -62 0 -47 3 -53 50 -97 36 -34 50
-54 50 -74 0 -18 13 -40 38 -66 35 -34 43 -38 75 -32 l37 6 0 83 0 83 -87 85
c-89 86 -122 103 -151 74z"/>
<path d="M5960 11030 c-80 -84 -100 -99 -126 -100 -23 0 -36 -7 -48 -25 -12
-19 -25 -25 -51 -25 -25 0 -37 -6 -46 -22 -7 -13 -24 -32 -38 -43 -67 -52 -75
-70 -36 -85 14 -5 28 -17 31 -25 5 -11 22 -15 68 -15 58 0 64 2 75 26 15 33
46 29 46 -6 0 -18 -6 -26 -22 -28 -23 -3 -23 -4 -23 -187 l0 -185 -25 -16
c-26 -17 -26 -17 -23 -153 l3 -136 62 -3 c69 -3 95 -21 72 -48 -11 -14 -33
-15 -168 -9 -135 7 -157 10 -170 27 -15 17 -30 18 -226 16 l-210 -3 0 -40 0
-40 62 -5 c50 -4 66 -9 78 -27 15 -21 24 -23 119 -23 96 0 104 -1 126 -25 22
-24 30 -25 127 -25 98 0 103 -1 119 -25 12 -18 25 -25 48 -25 53 0 56 -10 56
-177 l0 -153 -25 -12 c-33 -15 -32 -46 1 -58 23 -9 26 -15 21 -40 -4 -20 -1
-34 9 -45 14 -14 20 -12 55 24 28 28 39 47 39 69 0 21 8 35 25 46 24 16 25 20
25 125 0 105 1 109 25 125 19 13 23 22 19 44 -4 19 0 32 11 42 15 13 20 11 39
-13 20 -25 27 -27 97 -27 68 0 78 -3 99 -25 23 -24 28 -25 152 -25 125 0 128
0 144 -25 16 -24 20 -25 123 -25 102 0 108 1 129 25 12 14 26 25 32 25 25 0 5
35 -50 90 l-60 60 -105 0 c-94 0 -105 2 -115 20 -10 19 -21 20 -169 20 -129 0
-161 3 -171 15 -10 12 -10 18 0 30 10 12 65 15 344 17 l331 3 0 65 0 65 -56 3
c-45 2 -61 8 -79 27 -23 25 -25 25 -201 25 -196 0 -203 2 -197 62 l3 33 184 3
185 2 22 -27 22 -28 37 38 c31 31 36 43 33 75 -3 35 -5 37 -40 40 -26 2 -41
10 -52 28 -16 24 -18 24 -169 24 -164 0 -177 4 -177 50 0 47 11 50 202 50
l178 0 16 -25 c15 -24 22 -26 78 -23 l61 3 3 43 c2 23 -1 42 -7 42 -5 0 -17 7
-26 16 -12 12 -13 19 -4 30 6 8 18 14 25 14 19 0 18 36 -2 44 -9 3 -49 6 -89
6 -65 0 -76 3 -90 23 -14 21 -24 22 -153 27 l-137 5 0 40 0 40 139 3 c130 2
140 1 153 -18 11 -16 25 -20 67 -20 43 0 57 -4 76 -25 19 -20 32 -25 60 -23
32 3 35 6 38 40 2 28 -2 39 -20 52 -19 13 -24 28 -28 79 l-5 62 -62 5 c-50 4
-66 10 -78 27 -13 18 -27 23 -78 25 -54 3 -62 6 -65 24 -2 14 5 24 23 32 18 8
25 19 25 40 0 40 -17 52 -77 52 -50 0 -55 -2 -100 -50 -35 -38 -54 -50 -76
-50 -19 0 -36 -9 -49 -25 -18 -24 -24 -25 -123 -25 -72 0 -106 4 -113 13 -6 7
-12 51 -14 97 l-3 85 -35 2 c-32 2 -42 -6 -130 -97z m265 -320 l0 -65 -140 0
-140 0 -3 54 c-5 85 -11 82 145 79 l138 -3 0 -65z m0 -295 l0 -70 -133 -3
c-131 -3 -134 -3 -157 -29 -19 -24 -25 -25 -39 -14 -13 11 -15 25 -9 70 5 47
12 61 42 89 l36 33 130 -3 130 -3 0 -70z m-189 -200 c14 -22 23 -24 102 -27
l87 -3 3 -39 c2 -24 -2 -42 -10 -47 -15 -10 -288 -12 -312 -3 -12 5 -16 21
-16 68 0 35 3 66 7 69 3 4 32 7 64 7 51 0 61 -3 75 -25z"/>
<path d="M5307 10923 c-4 -3 -7 -22 -7 -41 0 -25 7 -40 25 -54 18 -14 23 -26
19 -42 -4 -17 5 -32 37 -64 23 -23 45 -42 50 -42 5 0 9 -15 9 -32 0 -53 10
-59 81 -56 l64 3 3 58 3 58 -50 48 c-37 34 -51 54 -51 74 0 18 -12 40 -35 62
-31 31 -40 35 -88 35 -30 0 -57 -3 -60 -7z"/>
<path d="M7767 10774 c-4 -4 -7 -22 -7 -40 0 -25 -7 -38 -25 -50 -22 -14 -25
-23 -25 -74 0 -51 -3 -60 -26 -75 -20 -13 -25 -23 -21 -42 4 -20 -2 -33 -25
-53 -22 -20 -28 -33 -24 -48 10 -31 -110 -149 -156 -154 -30 -3 -33 -7 -36
-37 -5 -49 -116 -161 -160 -161 -21 0 -35 -8 -46 -25 -12 -18 -25 -25 -47 -25
-45 0 -101 -60 -97 -103 l3 -32 66 -3 c61 -3 67 -1 83 23 12 18 25 25 47 25
21 0 37 8 51 25 13 16 29 25 48 25 18 0 34 8 44 21 8 12 22 19 33 17 16 -3 18
-16 21 -110 3 -105 2 -107 -23 -124 l-25 -16 0 -158 c0 -156 0 -159 -24 -177
-24 -17 -25 -23 -26 -143 -1 -69 -2 -131 -1 -137 2 -29 36 -9 99 57 48 50 74
70 92 70 38 0 200 163 200 201 0 20 13 40 50 75 47 45 49 49 52 108 3 53 5 61
23 61 19 0 20 -8 23 -112 3 -111 2 -112 -23 -129 l-25 -17 2 -161 3 -161 70 0
70 0 5 115 5 115 85 3 85 2 38 -35 c36 -36 37 -38 37 -110 0 -68 -2 -76 -25
-91 -32 -21 -32 -48 0 -62 21 -10 24 -18 27 -74 l3 -63 37 -3 c28 -2 39 1 47
17 6 11 8 26 5 34 -5 15 20 47 37 47 19 0 8 38 -16 54 -16 10 -25 26 -25 41 0
14 11 35 25 47 20 17 25 31 25 69 0 78 1 79 100 79 78 0 89 -2 102 -21 8 -13
29 -24 53 -28 l40 -6 0 -65 0 -65 -85 -3 c-90 -3 -110 -12 -110 -47 0 -42 11
-55 44 -55 22 0 40 -8 56 -25 22 -24 29 -25 131 -25 122 0 119 -2 119 86 0 30
4 54 9 54 19 0 41 32 41 60 0 19 -8 33 -25 44 -18 12 -25 25 -25 50 0 25 7 38
25 50 25 16 25 19 25 150 0 132 0 134 25 150 23 15 25 22 25 100 0 79 1 83 25
94 14 6 25 16 25 22 0 5 -11 17 -25 26 -17 11 -25 25 -25 44 0 57 -12 60 -233
60 -191 0 -203 1 -215 20 -18 29 -126 29 -150 1 -15 -18 -33 -20 -167 -22 -82
-1 -156 -1 -162 0 -22 2 -14 37 11 49 19 8 25 20 28 49 l3 38 185 3 c182 3
185 2 204 -20 18 -23 20 -23 304 -26 157 -2 296 -1 309 2 37 10 32 69 -9 112
l-33 34 -100 0 c-55 0 -106 4 -113 9 -9 5 -12 27 -10 72 l3 64 37 3 c30 3 40
-1 54 -22 14 -23 23 -26 73 -26 31 0 62 5 69 12 7 7 12 33 12 59 0 41 -5 53
-38 88 -34 37 -42 40 -97 43 l-60 3 -3 34 c-3 27 2 38 24 56 25 20 27 25 15
39 -37 44 -136 -22 -143 -94 l-3 -35 -84 -3 c-78 -3 -86 -1 -110 22 -24 23
-35 25 -131 28 l-105 3 -5 63 c-5 63 -17 82 -52 82 -33 0 -48 -12 -48 -40 0
-62 5 -60 -200 -60 -203 0 -225 6 -176 45 25 20 27 27 24 81 l-3 59 -40 3
c-23 2 -44 0 -48 -4z m101 -264 c8 -13 23 -20 41 -20 20 0 36 -9 49 -25 18
-23 27 -25 99 -25 48 0 84 -5 91 -12 7 -7 12 -34 12 -61 0 -44 -4 -54 -39 -88
l-39 -39 -155 0 c-167 0 -167 0 -167 -55 0 -35 24 -48 80 -43 49 5 70 -4 70
-29 0 -7 -11 -19 -25 -25 -22 -10 -25 -17 -25 -69 0 -51 -3 -61 -25 -75 -22
-14 -25 -23 -25 -74 0 -51 -3 -60 -25 -74 -18 -12 -25 -25 -25 -50 0 -25 -7
-38 -25 -50 -18 -12 -25 -25 -25 -50 0 -25 -7 -38 -26 -51 -20 -13 -25 -23
-21 -42 4 -20 -6 -36 -49 -80 -30 -29 -54 -58 -54 -64 0 -6 -10 -9 -22 -7 -30
4 -31 40 -2 52 25 11 34 56 34 167 0 58 3 70 20 79 19 10 20 21 20 190 0 149
3 181 16 194 8 9 20 16 25 16 5 0 9 27 9 60 0 52 3 61 25 76 18 12 25 25 25
50 0 25 7 38 25 50 18 12 25 25 25 50 0 25 7 38 25 50 20 13 25 25 25 55 0 34
3 39 23 39 12 0 28 -9 35 -20z m686 -145 c15 -22 23 -25 77 -25 72 0 89 -20
46 -52 -18 -13 -27 -29 -27 -47 0 -39 -17 -51 -77 -51 -45 0 -55 4 -69 25 -16
24 -20 25 -125 25 -93 0 -111 3 -116 16 -4 11 3 24 22 37 l28 21 -28 22 c-18
14 -26 28 -22 38 5 14 27 16 141 16 132 0 134 0 150 -25z m-448 -540 c14 -22
23 -24 102 -27 85 -3 87 -4 96 -31 19 -53 2 -62 -121 -65 -106 -3 -110 -4
-121 -27 -15 -33 -52 -34 -52 -1 0 17 7 26 25 30 23 6 25 11 25 70 0 82 15 99
46 51z m542 -50 c13 -17 30 -25 50 -25 38 0 54 -20 50 -62 -3 -30 -6 -33 -38
-36 -28 -2 -41 3 -60 23 -21 23 -31 25 -100 25 -83 0 -100 9 -100 50 0 42 17
50 101 50 71 0 79 -2 97 -25z m-534 -200 c14 -22 24 -25 75 -25 63 0 85 -18
55 -42 -8 -7 -25 -23 -36 -35 -18 -19 -32 -23 -81 -23 -50 0 -60 -3 -64 -19
-5 -21 -29 -35 -44 -25 -18 11 -9 43 13 46 33 4 35 36 4 48 -34 12 -33 23 7
65 38 41 50 43 71 10z m340 -34 c10 -16 -5 -41 -24 -41 -23 0 -34 16 -26 35 6
16 42 20 50 6z m241 -66 c0 -16 -8 -21 -39 -23 -43 -4 -62 8 -52 33 4 12 16
15 48 13 35 -2 43 -7 43 -23z"/>
<path d="M5594 10515 c-11 -18 -25 -25 -47 -25 -24 0 -44 -14 -103 -75 -58
-60 -79 -75 -102 -75 -20 0 -35 -8 -46 -25 -14 -21 -25 -24 -78 -27 l-63 -3
-3 -36 c-3 -31 3 -42 34 -73 l37 -36 93 0 c114 0 124 3 124 44 0 39 15 56 50
56 18 0 50 25 113 86 l87 85 0 52 c0 29 -5 58 -12 65 -21 21 -66 14 -84 -13z"/>
<path d="M10488 10230 c-42 -44 -58 -68 -58 -88 0 -49 -12 -52 -177 -52 -152
0 -153 0 -169 25 -16 24 -20 25 -122 25 l-105 0 -83 -82 c-83 -83 -84 -83 -84
-135 0 -49 -17 -83 -41 -83 -5 0 -9 -59 -9 -135 0 -132 0 -135 -25 -151 -25
-16 -25 -19 -25 -148 l0 -131 34 -32 c20 -21 43 -33 60 -33 15 0 35 -10 48
-25 13 -16 32 -25 50 -25 18 0 36 -9 50 -25 20 -23 29 -25 99 -25 71 0 79 -2
97 -25 17 -21 28 -25 74 -25 62 0 78 -11 78 -56 0 -23 -7 -36 -25 -48 l-25
-16 0 -202 0 -201 35 -33 c24 -24 43 -34 65 -34 22 0 41 10 65 34 l35 33 0
105 c0 102 1 106 25 122 24 16 25 20 25 125 0 90 3 110 16 115 33 13 64 6 80
-19 16 -25 17 -25 168 -25 150 0 153 0 176 -25 23 -24 28 -25 150 -25 l126 0
37 38 c33 34 37 43 37 90 0 44 -4 54 -25 68 -22 14 -25 23 -25 75 0 51 3 61
25 75 25 16 25 18 25 149 0 131 0 133 25 149 22 14 25 24 25 75 0 52 3 61 25
75 21 14 25 24 25 66 0 45 -4 54 -41 90 -28 27 -50 40 -68 40 -17 0 -36 10
-49 25 -20 23 -29 25 -102 25 -69 0 -81 3 -90 20 -9 17 -21 20 -90 20 -73 0
-82 2 -102 25 -12 14 -32 25 -47 25 -51 0 -56 11 -61 132 l-5 113 -35 2 c-31
2 -42 -4 -92 -57z m-460 -305 c17 -21 28 -25 76 -25 48 0 58 -3 72 -25 15 -23
22 -25 98 -25 50 0 87 -5 94 -12 13 -13 16 -106 4 -124 -4 -6 -15 -13 -24 -17
-13 -4 -18 -17 -18 -41 0 -27 -6 -40 -25 -52 -23 -15 -25 -22 -25 -96 0 -80 0
-81 -39 -119 l-39 -39 -169 0 -169 0 -37 34 c-35 32 -37 37 -37 94 0 51 3 63
20 72 18 10 20 21 20 139 0 128 0 128 29 159 19 20 28 37 25 50 -9 31 22 52
76 52 40 0 52 -4 68 -25z m692 -150 c22 -24 30 -25 126 -25 97 0 104 -1 122
-25 13 -16 30 -25 49 -25 41 0 53 -17 53 -77 0 -45 -4 -55 -25 -69 -24 -16
-25 -20 -25 -125 0 -104 -1 -109 -24 -125 -18 -11 -26 -26 -28 -52 l-3 -37
-89 -3 c-80 -3 -90 -1 -103 18 -13 18 -25 20 -138 20 -68 0 -130 3 -139 6 -26
10 -21 72 9 100 24 22 25 29 25 128 0 95 2 106 20 116 17 9 20 21 20 86 0 102
7 114 74 114 43 0 57 -4 76 -25z"/>
<path d="M1696 3855 c-12 -19 -25 -25 -51 -25 -38 0 -58 -23 -49 -58 4 -14 -1
-25 -20 -37 -25 -17 -36 -55 -17 -55 6 0 32 -22 59 -50 38 -38 57 -50 80 -50
21 0 35 -7 46 -25 16 -24 21 -25 121 -25 99 0 104 1 123 25 14 17 30 25 51 25
22 0 35 7 47 25 15 24 21 25 104 25 69 0 89 3 94 15 3 8 -1 21 -10 27 -8 7
-25 23 -37 35 -12 12 -38 23 -57 25 -32 3 -35 6 -38 37 -3 24 -15 47 -42 73
l-38 38 -175 0 -175 0 -16 -25z m233 -89 c7 -8 11 -30 9 -48 -3 -33 -3 -33
-61 -36 -35 -2 -64 2 -73 9 -17 14 -18 61 -2 77 17 17 113 15 127 -2z"/>
<path d="M2520 8725 c-117 -116 -135 -138 -135 -166 0 -18 -6 -34 -13 -37 -26
-8 -43 -35 -38 -58 6 -22 -15 -54 -35 -54 -5 0 -9 -60 -9 -139 0 -119 -2 -140
-16 -145 -11 -4 -28 5 -50 28 l-34 35 0 274 c0 303 0 301 -62 295 l-33 -3 -3
-259 -2 -258 25 -24 c20 -19 25 -32 25 -75 0 -43 4 -56 26 -75 22 -21 25 -31
22 -77 -3 -48 -5 -52 -28 -52 -21 0 -25 5 -26 33 -1 28 -15 47 -85 117 -61 62
-91 85 -110 85 -14 0 -36 11 -49 25 -19 20 -33 25 -75 25 -42 0 -56 5 -75 25
-19 20 -33 25 -75 25 -42 0 -55 4 -73 25 -18 20 -31 25 -70 25 -43 0 -54 -5
-86 -36 -31 -31 -37 -42 -34 -73 l3 -36 137 -3 c132 -2 137 -3 152 -27 12 -18
25 -25 50 -25 25 0 38 -7 50 -25 14 -21 24 -25 70 -25 47 0 57 -4 91 -35 55
-52 44 -65 -58 -65 -76 0 -86 -2 -107 -25 -23 -25 -26 -25 -177 -25 -152 0
-153 0 -169 -25 -12 -18 -25 -25 -49 -25 -24 0 -37 -7 -49 -25 -11 -17 -26
-25 -46 -25 -23 0 -44 -14 -90 -59 l-60 -59 0 -105 c0 -101 1 -105 25 -121 17
-12 25 -25 25 -46 0 -24 13 -43 62 -90 43 -40 71 -59 88 -60 19 0 46 -21 99
-75 57 -59 79 -75 101 -75 19 0 34 -8 45 -22 13 -20 27 -24 103 -28 l87 -5 3
-37 c2 -26 10 -41 28 -52 21 -14 24 -24 24 -71 0 -54 1 -56 62 -115 45 -45 68
-60 89 -60 19 0 34 -8 45 -25 12 -18 25 -25 50 -25 25 0 38 -7 50 -25 16 -24
20 -25 120 -25 l104 0 110 110 c90 91 110 116 110 140 0 20 8 35 25 46 l25 16
0 204 0 204 -25 16 c-28 18 -33 42 -10 50 10 4 32 -12 63 -45 45 -48 51 -51
98 -51 41 0 55 -5 74 -25 l23 -25 199 0 199 0 34 35 c23 22 35 44 35 61 0 21
18 45 75 101 85 83 94 111 48 150 l-28 23 28 23 c34 28 34 41 2 55 -19 9 -25
19 -25 42 0 24 -19 48 -110 140 l-110 110 -54 0 c-34 0 -58 5 -65 14 -13 15
-11 17 53 71 l36 30 0 88 c0 48 -4 87 -9 87 -26 0 -41 34 -41 91 0 32 -4 59
-9 59 -21 0 -42 33 -37 56 6 22 -15 54 -35 54 -5 0 -9 26 -9 58 0 65 -11 82
-51 82 -21 0 -46 18 -102 75 l-75 75 -73 0 -74 0 -135 -135z m323 -51 l87 -86
0 -52 c0 -43 4 -56 25 -74 16 -14 25 -32 25 -50 0 -18 9 -37 25 -50 23 -20 25
-29 25 -97 0 -69 -2 -76 -25 -91 -25 -16 -26 -20 -23 -108 l3 -91 38 -3 c26
-2 42 -10 53 -28 11 -16 26 -24 46 -24 24 0 46 -16 114 -84 l84 -85 0 -104 c0
-100 -1 -105 -24 -121 -18 -11 -26 -27 -28 -53 -3 -36 -5 -38 -41 -41 -26 -2
-42 -10 -53 -28 -16 -23 -19 -24 -149 -24 -131 0 -133 0 -149 25 -15 23 -22
25 -94 25 l-78 0 -49 50 c-61 62 -84 64 -136 11 -47 -46 -51 -82 -14 -107 l25
-16 0 -182 0 -181 -47 -45 c-33 -31 -48 -54 -53 -79 -5 -32 -9 -36 -43 -42
-22 -3 -44 -15 -53 -28 -14 -19 -24 -21 -123 -21 -104 0 -109 1 -125 24 -11
18 -27 26 -53 28 -36 3 -38 5 -41 41 -2 26 -10 42 -28 53 -17 12 -24 25 -24
49 0 24 -7 37 -25 49 -35 23 -35 77 1 100 21 14 25 24 22 54 l-3 37 -60 3
c-54 3 -63 0 -85 -23 -31 -33 -74 -33 -96 0 -12 18 -25 25 -49 25 -24 0 -37 7
-49 25 -12 18 -25 25 -47 25 -24 0 -44 14 -103 75 -55 57 -79 75 -100 75 -36
0 -96 60 -96 97 0 17 -9 35 -26 48 -25 20 -26 55 -2 55 6 0 31 23 57 50 36 38
54 50 77 50 18 0 34 7 42 20 8 13 23 20 42 20 20 0 38 9 52 25 l22 25 303 0
303 0 16 25 c16 24 21 25 114 25 54 0 105 3 114 6 13 5 16 23 16 96 0 80 -2
90 -19 95 -11 3 -22 11 -25 19 -5 14 18 44 35 44 5 0 9 47 9 105 l0 105 50 48
c48 45 50 50 50 100 0 43 4 56 25 74 15 13 25 32 25 49 0 37 64 99 102 99 17
0 34 9 45 25 12 16 28 24 48 25 24 0 46 -16 118 -86z m-558 -629 c0 -13 -8
-21 -22 -23 -17 -3 -23 2 -23 16 0 10 3 22 7 26 13 13 38 1 38 -19z"/>
</g>
</svg>
